<svg xmlns="http://www.w3.org/2000/svg" width="352" height="352" viewBox="0 0 352 352"><g transform="translate(176, 176) translate(-128, -128)"><svg width="256" height="256" viewBox="144 144 512 512"><path xmlns="http://www.w3.org/2000/svg" d="m557.44 263.55h-52.48v-20.992c0-11.137-4.4219-21.816-12.293-29.691-7.875-7.875-18.555-12.297-29.691-12.293h-220.42c-13.918.003906-27.262 5.5352-37.102 15.375-9.8438 9.8438-15.375 23.188-15.379 37.105v293.89c.003906 13.918 5.5352 27.266 15.379 37.105 9.8398 9.8398 23.184 15.371 37.102 15.375h314.88c13.914-.003906 27.262-5.5352 37.102-15.375 9.8398-9.8398 15.371-23.188 15.379-37.105v-230.91c-.007813-13.918-5.5391-27.262-15.379-37.105-9.8398-9.8398-23.188-15.371-37.102-15.375zm-41.879 262.5h-146.95c-2.7891.011718-5.4648-1.0938-7.4336-3.0625s-3.0742-4.6445-3.0625-7.4336c.054687-19.469 7.8164-38.121 21.582-51.891 13.766-13.766 32.422-21.523 51.891-21.582h20.992c19.473.039062 38.137 7.793 51.906 21.562 13.773 13.773 21.527 32.438 21.566 51.91.027344 2.793-1.0703 5.4805-3.0469 7.4531-1.9727 1.9766-4.6602 3.0703-7.4492 3.043zm-113.36-135.08-.003906-13.855c0-14.25 7.6016-27.418 19.941-34.543 12.344-7.125 27.547-7.125 39.887.0s19.941 20.293 19.941 34.543v13.855c-.13281 14.16-7.7617 27.188-20.047 34.23-12.289 7.043-27.387 7.043-39.672.0-12.289-7.043-19.918-20.07-20.051-34.23zm-128.16 155.97c-.125 11.168-6.1562 21.43-15.844 26.977-9.6914 5.5469-21.598 5.5469-31.285.0-9.6914-5.5469-15.723-15.809-15.848-26.977V253.05c.023438-8.3438 3.3516-16.34 9.25-22.238 5.8984-5.9023 13.895-9.2266 22.238-9.25h220.42c5.5625.015625 10.891 2.2344 14.824 6.168 3.9336 3.9297 6.1523 9.2617 6.168 14.824v20.992h-146.95c-16.699.011719-32.711 6.6523-44.516 18.461-11.809 11.805-18.449 27.816-18.461 44.516zm149.15-155.97v-13.852c0-6.75 3.6016-12.988 9.4453-16.363 5.8477-3.375 13.047-3.375 18.895.0 5.8438 3.375 9.4453 9.6133 9.4453 16.363v13.855c-.085938 6.6914-3.7031 12.84-9.5156 16.164-5.8086 3.3203-12.945 3.3203-18.754.0-5.8125-3.3242-9.4297-9.4727-9.5156-16.164zm80.82 114.09h-123.75c2.4297-11.828 8.8594-22.461 18.207-30.105 9.3477-7.6484 21.043-11.84 33.121-11.879h20.992-.003907c12.094.019531 23.812 4.2031 33.18 11.852 9.3672 7.6484 15.816 18.289 18.254 30.133z" fill="#D4AF37"/></svg></g></svg>