<?xml version="1.0" encoding="UTF-8"?>
<svg xmlns="http://www.w3.org/2000/svg" xmlns:xlink="http://www.w3.org/1999/xlink" width="50px" height="50px" viewBox="0 0 50 50" version="1.1">
<g id="surface1">
<path style=" stroke:none;fill-rule:nonzero;fill:rgb(9.019608%,76.078433%,0%);fill-opacity:1;" d="M 36.386719 13.613281 C 30.097656 7.324219 19.902344 7.324219 13.613281 13.613281 C 7.328125 19.902344 7.324219 30.097656 13.613281 36.386719 C 19.902344 42.675781 30.097656 42.675781 36.386719 36.386719 C 42.675781 30.097656 42.675781 19.902344 36.386719 13.613281 Z M 28.003906 33.511719 C 28.003906 34.613281 27.101562 35.511719 26 35.511719 L 24 35.511719 C 22.898438 35.511719 21.996094 34.613281 21.996094 33.511719 L 21.996094 28.003906 L 16.488281 28.003906 C 15.386719 28.003906 14.488281 27.101562 14.488281 26 L 14.488281 24 C 14.488281 22.898438 15.386719 21.996094 16.488281 21.996094 L 21.996094 21.996094 L 21.996094 16.488281 C 21.996094 15.386719 22.898438 14.488281 24 14.488281 L 26 14.488281 C 27.101562 14.488281 28.003906 15.386719 28.003906 16.488281 L 28.003906 21.996094 L 33.511719 21.996094 C 34.613281 21.996094 35.511719 22.898438 35.511719 24 L 35.511719 26 C 35.511719 27.101562 34.613281 28.003906 33.511719 28.003906 L 28.003906 28.003906 Z M 28.003906 33.511719 "/>
</g>
</svg>
