<?xml version="1.0" encoding="UTF-8"?>
<svg xmlns="http://www.w3.org/2000/svg" xmlns:xlink="http://www.w3.org/1999/xlink" width="50px" height="50px" viewBox="0 0 50 50" version="1.1">
<g id="surface1">
<path style=" stroke:none;fill-rule:evenodd;fill:rgb(100%,0%,0%);fill-opacity:1;" d="M 24.503906 21.878906 L 22.605469 19.984375 C 21.882812 19.257812 20.707031 19.257812 19.984375 19.984375 C 19.257812 20.707031 19.257812 21.882812 19.984375 22.605469 L 21.878906 24.503906 C 22.039062 24.664062 22.039062 24.925781 21.878906 25.085938 L 19.984375 26.980469 C 19.257812 27.707031 19.257812 28.878906 19.984375 29.605469 C 20.707031 30.328125 21.882812 30.328125 22.605469 29.605469 L 24.503906 27.710938 C 24.664062 27.546875 24.925781 27.546875 25.085938 27.710938 L 26.980469 29.605469 C 27.707031 30.328125 28.878906 30.328125 29.605469 29.605469 C 30.328125 28.878906 30.328125 27.707031 29.605469 26.980469 L 27.710938 25.085938 C 27.546875 24.925781 27.546875 24.664062 27.710938 24.503906 L 29.605469 22.605469 C 30.328125 21.882812 30.328125 20.707031 29.605469 19.984375 C 28.878906 19.257812 27.703125 19.257812 26.980469 19.984375 L 25.085938 21.878906 C 24.925781 22.039062 24.664062 22.039062 24.503906 21.878906 Z M 24.503906 21.878906 "/>
<path style=" stroke:none;fill-rule:nonzero;fill:rgb(100%,0%,0%);fill-opacity:1;" d="M 16.777344 32.8125 C 21.203125 37.238281 28.382812 37.238281 32.8125 32.8125 C 37.238281 28.382812 37.238281 21.203125 32.8125 16.777344 C 28.382812 12.347656 21.203125 12.347656 16.777344 16.777344 C 12.347656 21.203125 12.347656 28.382812 16.777344 32.8125 Z M 14.152344 35.4375 C 8.273438 29.558594 8.273438 20.027344 14.152344 14.152344 C 20.027344 8.273438 29.558594 8.273438 35.4375 14.152344 C 41.3125 20.027344 41.3125 29.558594 35.4375 35.4375 C 29.558594 41.3125 20.027344 41.3125 14.152344 35.4375 Z M 14.152344 35.4375 "/>
</g>
</svg>
