<?xml version="1.0" encoding="UTF-8"?>
<svg xmlns="http://www.w3.org/2000/svg" xmlns:xlink="http://www.w3.org/1999/xlink" width="64px" height="64px" viewBox="0 0 64 64" version="1.1">
<g id="surface1">
<path style=" stroke:none;fill-rule:nonzero;fill:rgb(0%,0%,0%);fill-opacity:1;" d="M 39.875 44.8125 L 39.6875 44.8125 C 39.410156 45.574219 38.828125 46.191406 38.082031 46.511719 C 37.335938 46.832031 36.492188 46.832031 35.742188 46.511719 C 34.996094 46.191406 34.417969 45.574219 34.136719 44.8125 L 29.847656 44.8125 C 29.570312 45.574219 28.988281 46.191406 28.242188 46.511719 C 27.496094 46.832031 26.648438 46.832031 25.902344 46.511719 C 25.15625 46.191406 24.578125 45.574219 24.296875 44.8125 C 24.046875 44.753906 23.785156 44.832031 23.609375 45.019531 C 23.433594 45.203125 23.363281 45.46875 23.433594 45.714844 L 25.667969 53.519531 L 25.664062 53.519531 C 25.851562 54.1875 26.457031 54.648438 27.152344 54.652344 L 36.835938 54.652344 C 37.527344 54.648438 38.136719 54.1875 38.320312 53.519531 L 40.554688 45.714844 C 40.621094 45.503906 40.582031 45.269531 40.445312 45.089844 C 40.3125 44.910156 40.097656 44.804688 39.875 44.8125 Z M 29.039062 51.699219 C 29.03125 52.238281 28.59375 52.667969 28.058594 52.667969 C 27.519531 52.667969 27.082031 52.238281 27.074219 51.699219 L 27.074219 48.746094 C 27.082031 48.210938 27.519531 47.777344 28.058594 47.777344 C 28.59375 47.777344 29.03125 48.210938 29.039062 48.746094 Z M 32.976562 51.699219 C 32.96875 52.238281 32.53125 52.667969 31.992188 52.667969 C 31.457031 52.667969 31.015625 52.238281 31.007812 51.699219 L 31.007812 48.746094 C 31.015625 48.210938 31.457031 47.777344 31.992188 47.777344 C 32.53125 47.777344 32.96875 48.210938 32.976562 48.746094 Z M 36.914062 51.699219 C 36.90625 52.238281 36.46875 52.667969 35.929688 52.667969 C 35.390625 52.667969 34.953125 52.238281 34.945312 51.699219 L 34.945312 48.746094 C 34.953125 48.210938 35.390625 47.777344 35.929688 47.777344 C 36.46875 47.777344 36.90625 48.210938 36.914062 48.746094 Z M 36.914062 51.699219 "/>
<path style=" stroke:none;fill-rule:nonzero;fill:rgb(0%,0%,0%);fill-opacity:1;" d="M 36.914062 44.8125 C 37.453125 44.804688 37.882812 44.363281 37.882812 43.828125 C 37.882812 43.289062 37.453125 42.851562 36.914062 42.84375 C 36.375 42.851562 35.945312 43.289062 35.945312 43.828125 C 35.945312 44.363281 36.375 44.804688 36.914062 44.8125 Z M 36.914062 44.8125 "/>
<path style=" stroke:none;fill-rule:nonzero;fill:rgb(0%,0%,0%);fill-opacity:1;" d="M 27.074219 44.8125 C 27.613281 44.804688 28.042969 44.363281 28.042969 43.828125 C 28.042969 43.289062 27.613281 42.851562 27.074219 42.84375 C 26.535156 42.851562 26.105469 43.289062 26.105469 43.828125 C 26.105469 44.363281 26.535156 44.804688 27.074219 44.8125 Z M 27.074219 44.8125 "/>
<path style=" stroke:none;fill-rule:nonzero;fill:rgb(0%,0%,0%);fill-opacity:1;" d="M 29.847656 42.84375 L 34.140625 42.84375 C 34.386719 42.132812 34.902344 41.542969 35.574219 41.199219 L 35.28125 39.703125 C 35.1875 39.242188 34.785156 38.910156 34.316406 38.90625 L 29.671875 38.90625 C 29.203125 38.910156 28.796875 39.242188 28.707031 39.703125 L 28.410156 41.199219 L 28.414062 41.199219 C 29.085938 41.542969 29.601562 42.128906 29.847656 42.84375 Z M 29.847656 42.84375 "/>
<path style=" stroke:none;fill-rule:nonzero;fill:rgb(0%,0%,0%);fill-opacity:1;" d="M 38.894531 26.464844 C 37.621094 25.972656 36.296875 25.613281 34.945312 25.394531 L 34.945312 24.558594 C 35.238281 24.441406 35.527344 24.304688 35.800781 24.148438 L 42.816406 24.148438 C 43.359375 24.144531 43.800781 23.707031 43.800781 23.164062 L 43.800781 14.308594 C 43.800781 10.089844 41.550781 6.191406 37.898438 4.082031 C 34.242188 1.972656 29.742188 1.972656 26.089844 4.082031 C 22.4375 6.191406 20.183594 10.089844 20.183594 14.308594 L 20.183594 23.164062 C 20.1875 23.707031 20.625 24.144531 21.167969 24.148438 L 28.273438 24.148438 C 28.519531 24.292969 28.777344 24.421875 29.042969 24.53125 L 29.042969 25.394531 C 20.09375 26.746094 12.269531 35.054688 12.3125 43.828125 C 12.3125 48.753906 14.878906 52.449219 19.722656 54.539062 C 22.300781 58.859375 26.960938 61.503906 31.992188 61.503906 C 37.023438 61.503906 41.683594 58.859375 44.265625 54.539062 C 58.054688 48.640625 50.488281 30.453125 38.894531 26.464844 Z M 26.109375 17.476562 C 28.414062 17.785156 30.75 17.25 32.691406 15.972656 C 34.632812 14.695312 36.050781 12.757812 36.675781 10.519531 C 37.039062 10.667969 37.347656 10.917969 37.5625 11.242188 C 37.78125 11.566406 37.898438 11.949219 37.898438 12.339844 L 37.898438 17.257812 C 37.886719 19.097656 37.023438 20.828125 35.558594 21.941406 C 34.09375 23.054688 32.191406 23.421875 30.417969 22.9375 C 29.234375 22.566406 28.1875 21.847656 27.417969 20.875 C 26.648438 19.898438 26.191406 18.714844 26.109375 17.476562 Z M 32.972656 26.132812 C 32.960938 26.664062 32.523438 27.085938 31.992188 27.085938 C 31.460938 27.085938 31.027344 26.664062 31.011719 26.132812 C 31 26.117188 31.015625 25.089844 31.007812 25.070312 C 31.664062 25.15625 32.324219 25.152344 32.976562 25.0625 C 32.972656 25.082031 32.984375 26.113281 32.972656 26.132812 Z M 29.316406 27.34375 C 29.636719 28.023438 30.203125 28.558594 30.902344 28.835938 C 31.601562 29.113281 32.382812 29.113281 33.082031 28.835938 C 33.78125 28.558594 34.351562 28.023438 34.667969 27.34375 C 35.523438 27.476562 36.363281 27.675781 37.183594 27.933594 C 36.5 29.179688 35.390625 30.136719 34.058594 30.632812 C 32.726562 31.125 31.261719 31.125 29.929688 30.632812 C 28.597656 30.136719 27.488281 29.179688 26.800781 27.933594 C 27.625 27.675781 28.464844 27.476562 29.316406 27.34375 Z M 42.441406 46.246094 L 40.210938 54.058594 C 40.003906 54.796875 39.5625 55.445312 38.953125 55.910156 C 38.34375 56.371094 37.597656 56.621094 36.835938 56.617188 L 27.152344 56.617188 C 26.386719 56.621094 25.644531 56.371094 25.035156 55.914062 C 24.425781 55.453125 23.984375 54.804688 23.777344 54.070312 L 21.542969 46.246094 C 21.3125 45.410156 21.5 44.511719 22.046875 43.839844 C 22.59375 43.164062 23.429688 42.792969 24.296875 42.84375 C 24.636719 41.878906 25.453125 41.160156 26.453125 40.945312 L 26.777344 39.308594 C 26.914062 38.640625 27.273438 38.042969 27.800781 37.609375 C 28.328125 37.175781 28.988281 36.941406 29.671875 36.9375 L 34.316406 36.9375 C 34.996094 36.941406 35.65625 37.175781 36.183594 37.609375 C 36.710938 38.042969 37.074219 38.640625 37.207031 39.308594 L 37.53125 40.941406 L 37.53125 40.945312 C 38.53125 41.160156 39.347656 41.878906 39.6875 42.84375 C 40.554688 42.792969 41.390625 43.164062 41.9375 43.839844 C 42.484375 44.511719 42.671875 45.410156 42.441406 46.246094 Z M 45.601562 51.578125 C 46.445312 48.875 46.476562 45.980469 45.6875 43.261719 C 45.738281 43.140625 45.765625 43.015625 45.765625 42.886719 C 46.140625 42.394531 46.628906 42.007812 47.195312 41.753906 C 47.671875 41.503906 47.859375 40.921875 47.621094 40.441406 C 47.378906 39.960938 46.796875 39.761719 46.3125 39.996094 C 45.769531 40.265625 45.261719 40.605469 44.804688 41.003906 C 43.222656 37.800781 40.5 35.308594 37.167969 34.015625 C 33.839844 32.71875 30.144531 32.71875 26.816406 34.015625 C 23.488281 35.308594 20.761719 37.800781 19.179688 41.003906 C 18.722656 40.605469 18.214844 40.265625 17.671875 39.996094 C 17.1875 39.761719 16.605469 39.960938 16.367188 40.441406 C 16.125 40.921875 16.316406 41.503906 16.792969 41.753906 C 17.339844 42.007812 17.828125 42.378906 18.21875 42.84375 C 18.21875 42.980469 18.25 43.117188 18.304688 43.242188 C 17.507812 45.96875 17.535156 48.867188 18.386719 51.578125 C 9.480469 45.316406 16.378906 32.128906 24.964844 28.644531 C 25.84375 30.386719 27.339844 31.738281 29.164062 32.441406 C 30.984375 33.140625 33 33.140625 34.824219 32.441406 C 36.644531 31.738281 38.140625 30.386719 39.023438 28.644531 C 47.605469 32.125 54.503906 45.316406 45.601562 51.578125 Z M 45.601562 51.578125 "/>
</g>
</svg>
