<svg xmlns="http://www.w3.org/2000/svg" width="352" height="352" viewBox="0 0 352 352"><g transform="translate(176, 176) translate(-128, -128)"><svg width="256" height="256" viewBox="144 144 512 512"><g xmlns="http://www.w3.org/2000/svg"><path d="m282.61 393.45c20.152.0 38.793-7.0547 53.906-19.145 16.121 9.5742 34.762 15.113 54.914 15.113 22.168.0 42.824-6.5508 59.953-18.137 15.113 13.602 35.266 22.168 57.434 22.168 47.863.0 86.152-38.793 86.152-86.152.003906-47.355-38.789-86.656-86.652-86.656-9.0703.0-17.633 1.5117-25.695 4.0312-19.145-30.73-52.898-51.387-91.691-51.387-37.785.0-71.039 19.648-90.184 48.871-6.0469-1.0078-12.09-2.0156-18.137-2.0156-47.863.0-86.152 38.793-86.152 86.152.003907 47.355 38.293 87.156 86.152 87.156zm225.71-157.69c39.297.0 71.039 31.738 71.039 71.039.0 39.297-31.738 71.039-71.039 71.039-17.129.0-33.25-6.0469-45.344-16.625 22.168-19.648 36.273-48.367 36.273-80.105.0-15.617-3.5273-30.23-9.0703-43.328 5.5469-1.0117 12.098-2.0195 18.141-2.0195zm-225.71.0c3.5273.0 7.0547.50391 10.578 1.0078-6.5508 13.602-10.078 28.719-10.078 44.84.0 33.754 15.617 63.984 40.305 84.137-11.586 8.0625-25.695 12.594-40.809 12.594-39.297.0-71.039-31.738-71.039-71.039.007813-39.297 31.746-71.539 71.043-71.539z" fill="#D4AF37"/><path d="m581.37 425.69c-18.137-18.641-41.312-28.215-68.52-28.215-21.16.0-39.801 5.543-55.418 17.129-17.633-10.078-37.785-15.617-60.457-15.617-21.16.0-40.305 4.5352-57.434 13.602-15.113-10.078-32.746-15.113-52.395-15.113-27.207.0-50.383 9.5742-68.52 28.215-47.359 48.367-45.344 142.07-45.344 146.11s3.5273 7.5586 7.5586 7.5586h75.066c-2.5195 21.664-2.0156 37.281-2.0156 39.297.0 4.0312 3.5273 7.5586 7.5586 7.5586h270.55c4.0312.0 7.5586-3.0234 7.5586-7.5586.0-1.5117.50391-17.633-2.0156-39.801h81.113c4.0312.0 7.5586-3.0234 7.5586-7.5586.49609-3.5273 2.5117-97.234-44.844-145.6zM188.4 563.74c.50391-22.672 5.543-91.191 40.809-127.46 15.113-15.617 34.762-23.68 57.938-23.68 14.105.0 27.207 3.0234 38.289 9.0703-5.0391 3.5273-10.078 8.0625-14.609 12.594-34.258 35.266-47.863 89.176-53.402 129.48zm347.63.0c-5.543-40.809-19.145-94.715-53.402-129.48-3.5273-4.0312-7.5586-7.0547-11.586-10.578 12.09-7.5586 26.199-11.082 41.816-11.082 23.176.0 42.32 8.0625 57.938 23.68 35.77 36.273 40.305 105.3 40.809 127.46z" fill="#D4AF37"/></g></svg></g></svg>