<svg id="svg" fill="#D4AF37" stroke="#D4AF37" width="38" height="38" version="1.1" viewBox="144 144 512 512" xmlns="http://www.w3.org/2000/svg" stroke-width="0">
    <g id="IconSvg_bgCarrier" stroke-width="0"></g>
    <g id="IconSvg_tracerCarrier" stroke-linecap="round" stroke-linejoin="round" stroke="#CCCCCC" stroke-width="0">
      <g xmlns="http://www.w3.org/2000/svg">
  <path d="m253.05 211.07h83.969c23.188 0 41.984 23.188 41.984 41.984v41.984c0 23.188-18.797 41.984-41.984 41.984h-83.969c-23.188 0-41.984-23.188-41.984-41.984v-41.984c0-23.188 18.797-41.984 41.984-41.984z"></path>
  <path d="m274.05 358.02h41.984c34.781 0 62.977 34.781 62.977 62.977v104.96c0 34.781-28.195 62.977-62.977 62.977h-41.984c-34.781 0-62.977-34.781-62.977-62.977v-104.96c0-34.781 28.195-62.977 62.977-62.977z"></path>
  <path d="m462.98 462.98h83.969c23.188 0 41.984 23.188 41.984 41.984v41.984c0 23.188-18.797 41.984-41.984 41.984h-83.969c-23.188 0-41.984-23.188-41.984-41.984v-41.984c0-23.188 18.797-41.984 41.984-41.984z"></path>
  <path d="m483.96 211.07h41.984c34.781 0 62.977 34.781 62.977 62.977v104.96c0 34.781-28.195 62.977-62.977 62.977h-41.984c-34.781 0-62.977-34.781-62.977-62.977v-104.96c0-34.781 28.195-62.977 62.977-62.977z"></path>
 </g>

      </g>
     <g id="IconSvg_iconCarrier">
      <g xmlns="http://www.w3.org/2000/svg">
  <path d="m253.05 211.07h83.969c23.188 0 41.984 23.188 41.984 41.984v41.984c0 23.188-18.797 41.984-41.984 41.984h-83.969c-23.188 0-41.984-23.188-41.984-41.984v-41.984c0-23.188 18.797-41.984 41.984-41.984z"></path>
  <path d="m274.05 358.02h41.984c34.781 0 62.977 34.781 62.977 62.977v104.96c0 34.781-28.195 62.977-62.977 62.977h-41.984c-34.781 0-62.977-34.781-62.977-62.977v-104.96c0-34.781 28.195-62.977 62.977-62.977z"></path>
  <path d="m462.98 462.98h83.969c23.188 0 41.984 23.188 41.984 41.984v41.984c0 23.188-18.797 41.984-41.984 41.984h-83.969c-23.188 0-41.984-23.188-41.984-41.984v-41.984c0-23.188 18.797-41.984 41.984-41.984z"></path>
  <path d="m483.96 211.07h41.984c34.781 0 62.977 34.781 62.977 62.977v104.96c0 34.781-28.195 62.977-62.977 62.977h-41.984c-34.781 0-62.977-34.781-62.977-62.977v-104.96c0-34.781 28.195-62.977 62.977-62.977z"></path>
 </g>

      </g>
      </svg>