<?xml version="1.0" encoding="UTF-8"?>
<svg xmlns="http://www.w3.org/2000/svg" xmlns:xlink="http://www.w3.org/1999/xlink" width="50px" height="50px" viewBox="0 0 50 50" version="1.1">
<g id="surface1">
<path style=" stroke:none;fill-rule:nonzero;fill:rgb(98.039216%,0%,0%);fill-opacity:1;" d="M 38.679688 16.582031 C 38.679688 15.742188 38.347656 14.941406 37.757812 14.347656 C 37.164062 13.757812 36.359375 13.421875 35.523438 13.421875 L 30.261719 13.421875 C 30.261719 11.542969 29.257812 9.804688 27.628906 8.867188 C 26.003906 7.925781 23.996094 7.925781 22.367188 8.867188 C 20.742188 9.804688 19.738281 11.542969 19.738281 13.421875 L 14.476562 13.421875 C 13.476562 13.421875 12.535156 13.894531 11.9375 14.699219 C 11.34375 15.5 11.164062 16.539062 11.457031 17.496094 C 11.75 18.453125 12.480469 19.210938 13.421875 19.542969 L 13.421875 36.855469 C 13.425781 38.175781 13.949219 39.441406 14.882812 40.375 C 15.816406 41.3125 17.085938 41.835938 18.40625 41.839844 L 31.59375 41.839844 C 32.914062 41.835938 34.179688 41.3125 35.117188 40.375 C 36.050781 39.441406 36.574219 38.175781 36.578125 36.855469 L 36.578125 19.542969 C 37.191406 19.328125 37.722656 18.925781 38.097656 18.394531 C 38.476562 17.867188 38.679688 17.230469 38.679688 16.582031 Z M 25 10.265625 C 25.835938 10.265625 26.640625 10.597656 27.234375 11.191406 C 27.824219 11.785156 28.15625 12.585938 28.15625 13.421875 L 21.84375 13.421875 C 21.84375 12.585938 22.175781 11.785156 22.765625 11.191406 C 23.359375 10.597656 24.164062 10.265625 25 10.265625 Z M 34.472656 36.855469 C 34.46875 37.617188 34.167969 38.347656 33.628906 38.890625 C 33.085938 39.429688 32.355469 39.734375 31.59375 39.734375 L 18.40625 39.734375 C 17.644531 39.734375 16.910156 39.429688 16.371094 38.890625 C 15.832031 38.347656 15.527344 37.617188 15.527344 36.855469 L 15.527344 19.738281 L 34.472656 19.738281 Z M 35.523438 17.632812 L 14.476562 17.632812 C 14.097656 17.632812 13.753906 17.433594 13.5625 17.105469 C 13.375 16.78125 13.375 16.378906 13.5625 16.054688 C 13.753906 15.730469 14.097656 15.527344 14.476562 15.527344 L 35.523438 15.527344 C 35.898438 15.527344 36.246094 15.730469 36.433594 16.054688 C 36.625 16.378906 36.625 16.78125 36.433594 17.105469 C 36.246094 17.433594 35.898438 17.632812 35.523438 17.632812 Z M 35.523438 17.632812 "/>
<path style=" stroke:none;fill-rule:nonzero;fill:rgb(98.039216%,0%,0%);fill-opacity:1;" d="M 25 36.578125 C 25.277344 36.578125 25.546875 36.464844 25.742188 36.269531 C 25.941406 36.070312 26.050781 35.804688 26.050781 35.523438 L 26.050781 23.949219 C 26.050781 23.570312 25.851562 23.222656 25.527344 23.035156 C 25.199219 22.847656 24.800781 22.847656 24.472656 23.035156 C 24.148438 23.222656 23.949219 23.570312 23.949219 23.949219 L 23.949219 35.523438 C 23.949219 35.804688 24.058594 36.070312 24.253906 36.269531 C 24.453125 36.464844 24.722656 36.578125 25 36.578125 Z M 25 36.578125 "/>
<path style=" stroke:none;fill-rule:nonzero;fill:rgb(98.039216%,0%,0%);fill-opacity:1;" d="M 29.210938 35.523438 C 29.488281 35.523438 29.757812 35.414062 29.953125 35.214844 C 30.152344 35.019531 30.261719 34.75 30.261719 34.472656 L 30.261719 25 C 30.261719 24.625 30.0625 24.277344 29.734375 24.089844 C 29.410156 23.902344 29.007812 23.902344 28.683594 24.089844 C 28.359375 24.277344 28.15625 24.625 28.15625 25 L 28.15625 34.472656 C 28.15625 34.75 28.269531 35.019531 28.464844 35.214844 C 28.664062 35.414062 28.929688 35.523438 29.210938 35.523438 Z M 29.210938 35.523438 "/>
<path style=" stroke:none;fill-rule:nonzero;fill:rgb(98.039216%,0%,0%);fill-opacity:1;" d="M 20.789062 35.523438 C 21.070312 35.523438 21.335938 35.414062 21.535156 35.214844 C 21.730469 35.019531 21.84375 34.75 21.84375 34.472656 L 21.84375 25 C 21.84375 24.625 21.640625 24.277344 21.316406 24.089844 C 20.992188 23.902344 20.589844 23.902344 20.265625 24.089844 C 19.9375 24.277344 19.738281 24.625 19.738281 25 L 19.738281 34.472656 C 19.738281 34.75 19.847656 35.019531 20.046875 35.214844 C 20.242188 35.414062 20.511719 35.523438 20.789062 35.523438 Z M 20.789062 35.523438 "/>
</g>
</svg>
