<?xml version="1.0" encoding="UTF-8"?>
<svg xmlns="http://www.w3.org/2000/svg" xmlns:xlink="http://www.w3.org/1999/xlink" width="50px" height="50px" viewBox="0 0 50 50" version="1.1">
<g id="surface1">
<path style=" stroke:none;fill-rule:nonzero;fill:rgb(0%,74.901962%,100%);fill-opacity:1;" d="M 25 9.863281 C 16.589844 9.863281 9.863281 16.589844 9.863281 25 C 9.863281 33.410156 16.589844 40.136719 25 40.136719 C 33.410156 40.136719 40.136719 33.410156 40.136719 25 C 40.136719 16.589844 33.410156 9.863281 25 9.863281 Z M 25 33.410156 C 25 33.410156 24.328125 33.914062 23.824219 33.914062 L 23.316406 33.914062 C 22.476562 33.746094 21.972656 32.90625 22.308594 32.0625 L 23.484375 27.355469 L 23.992188 25.167969 C 24.496094 23.148438 22.476562 25.503906 21.972656 24.664062 C 21.636719 23.992188 23.484375 22.8125 25 21.804688 C 25 21.804688 25.671875 21.300781 26.175781 21.300781 L 26.683594 21.300781 C 27.523438 21.46875 28.027344 22.308594 27.859375 23.148438 L 26.683594 27.859375 L 26.175781 30.046875 C 25.671875 32.0625 27.691406 29.542969 28.195312 30.550781 C 28.195312 31.222656 26.34375 32.570312 25 33.410156 Z M 27.859375 18.777344 C 27.523438 19.953125 26.34375 20.628906 25.167969 20.292969 C 23.992188 19.953125 23.316406 18.777344 23.484375 17.601562 C 23.824219 16.421875 25 15.75 26.175781 16.085938 C 27.523438 16.421875 28.195312 17.601562 27.859375 18.777344 Z M 27.859375 18.777344 "/>
</g>
</svg>
