<?xml version="1.0" encoding="UTF-8"?>
<svg xmlns="http://www.w3.org/2000/svg" xmlns:xlink="http://www.w3.org/1999/xlink" width="50px" height="50px" viewBox="0 0 50 50" version="1.1">
<defs>
<clipPath id="clip1">
  <path d="M 20.527344 36.859375 L 42.890625 36.859375 L 42.890625 39.914062 L 20.527344 39.914062 Z M 20.527344 36.859375 "/>
</clipPath>
</defs>
<g id="surface1">
<g clip-path="url(#clip1)" clip-rule="nonzero">
<path style=" stroke:none;fill-rule:nonzero;fill:rgb(0.392157%,3.529412%,45.490196%);fill-opacity:1;" d="M 41.398438 39.910156 L 22.019531 39.910156 C 21.484375 39.910156 20.992188 39.625 20.726562 39.164062 C 20.460938 38.703125 20.460938 38.132812 20.726562 37.671875 C 20.992188 37.210938 21.484375 36.925781 22.019531 36.925781 L 41.398438 36.925781 C 41.933594 36.925781 42.425781 37.210938 42.691406 37.671875 C 42.957031 38.132812 42.957031 38.703125 42.691406 39.164062 C 42.425781 39.625 41.933594 39.910156 41.398438 39.910156 Z M 41.398438 39.910156 "/>
</g>
<path style=" stroke:none;fill-rule:nonzero;fill:rgb(0.392157%,3.529412%,45.490196%);fill-opacity:1;" d="M 37.328125 13.296875 L 35.210938 11.179688 C 34.652344 10.621094 33.894531 10.304688 33.101562 10.304688 C 32.3125 10.304688 31.550781 10.621094 30.992188 11.179688 L 27.980469 14.265625 L 34.242188 20.527344 L 37.328125 17.546875 C 37.890625 16.984375 38.203125 16.226562 38.203125 15.4375 C 38.203125 14.644531 37.890625 13.886719 37.328125 13.324219 Z M 37.328125 13.296875 "/>
<path style=" stroke:none;fill-rule:nonzero;fill:rgb(0.392157%,3.529412%,45.490196%);fill-opacity:1;" d="M 25.804688 16.367188 L 10.449219 31.738281 C 10.351562 31.835938 10.285156 31.960938 10.253906 32.097656 L 8.601562 39 C 8.550781 39.222656 8.605469 39.457031 8.75 39.636719 C 8.894531 39.8125 9.117188 39.914062 9.34375 39.910156 L 9.507812 39.910156 L 16.414062 38.269531 C 16.546875 38.238281 16.671875 38.171875 16.769531 38.074219 L 32.140625 22.703125 Z M 25.804688 16.367188 "/>
</g>
</svg>
