<?xml version="1.0" encoding="UTF-8"?>
<svg xmlns="http://www.w3.org/2000/svg" xmlns:xlink="http://www.w3.org/1999/xlink" width="50px" height="50px" viewBox="0 0 50 50" version="1.1">
<g id="surface1">
<path style=" stroke:none;fill-rule:nonzero;fill:rgb(5.490196%,81.960785%,0%);fill-opacity:1;" d="M 37.058594 16.519531 C 37.058594 16.234375 36.949219 15.945312 36.734375 15.730469 L 30.726562 9.292969 C 30.511719 9.039062 30.1875 8.933594 29.867188 8.933594 L 14.839844 8.933594 C 13.800781 8.933594 12.941406 9.792969 12.941406 10.828125 L 12.941406 39.203125 C 12.941406 40.242188 13.800781 41.101562 14.839844 41.101562 L 35.199219 41.101562 C 36.234375 41.101562 37.09375 40.242188 37.09375 39.203125 Z M 22.460938 33.765625 C 22.636719 34.050781 22.53125 34.265625 22.171875 34.265625 L 21.636719 34.265625 C 21.421875 34.265625 21.277344 34.160156 21.136719 33.980469 L 20.671875 33.15625 C 20.492188 32.835938 20.347656 32.476562 20.347656 32.476562 C 20.347656 32.476562 20.203125 32.800781 20.027344 33.15625 L 19.5625 33.980469 C 19.453125 34.195312 19.308594 34.265625 19.058594 34.265625 L 18.523438 34.265625 C 18.199219 34.265625 18.058594 34.050781 18.238281 33.765625 L 19.558594 31.582031 L 18.203125 29.402344 C 18.023438 29.113281 18.164062 28.898438 18.488281 28.898438 L 19.058594 28.898438 C 19.273438 28.898438 19.417969 29.007812 19.5625 29.1875 L 19.992188 30.007812 C 20.167969 30.332031 20.3125 30.6875 20.3125 30.6875 C 20.3125 30.6875 20.457031 30.332031 20.636719 30.007812 L 21.0625 29.1875 C 21.171875 28.972656 21.316406 28.898438 21.566406 28.898438 L 22.136719 28.898438 C 22.460938 28.898438 22.601562 29.113281 22.425781 29.402344 L 21.066406 31.621094 Z M 27.289062 33.875 C 27.289062 34.160156 27.148438 34.304688 26.859375 34.304688 L 24.175781 34.304688 C 23.890625 34.304688 23.746094 34.160156 23.746094 33.875 L 23.746094 29.328125 C 23.746094 29.042969 23.890625 28.898438 24.175781 28.898438 L 24.679688 28.898438 C 24.964844 28.898438 25.109375 29.042969 25.109375 29.328125 L 25.109375 33.15625 L 26.898438 33.15625 C 27.183594 33.15625 27.328125 33.300781 27.328125 33.585938 L 27.324219 33.875 Z M 29.972656 34.375 C 29.222656 34.375 28.542969 34.050781 28.257812 33.835938 C 28.113281 33.695312 27.96875 33.550781 28.183594 33.265625 L 28.433594 32.941406 C 28.578125 32.726562 28.757812 32.691406 29.007812 32.835938 C 29.1875 32.941406 29.507812 33.15625 29.972656 33.15625 C 30.367188 33.15625 30.546875 32.980469 30.546875 32.800781 C 30.546875 32.046875 28.183594 32.15625 28.183594 30.472656 C 28.183594 29.472656 29.007812 28.828125 30.117188 28.828125 C 30.726562 28.828125 31.296875 29.042969 31.585938 29.222656 C 31.800781 29.363281 31.835938 29.578125 31.726562 29.792969 L 31.546875 30.152344 C 31.40625 30.4375 31.191406 30.402344 30.976562 30.296875 C 30.726562 30.1875 30.476562 30.042969 30.117188 30.042969 C 29.6875 30.042969 29.542969 30.222656 29.542969 30.402344 C 29.542969 31.191406 31.90625 31.011719 31.90625 32.691406 C 31.871094 33.585938 31.191406 34.375 29.972656 34.375 Z M 35.414062 16.878906 L 31.476562 16.878906 C 30.4375 16.878906 29.582031 16.019531 29.582031 14.980469 L 29.582031 10.757812 C 29.582031 10.652344 29.722656 10.617188 29.792969 10.6875 L 35.519531 16.664062 C 35.554688 16.734375 35.519531 16.878906 35.414062 16.878906 Z M 35.414062 16.878906 "/>
</g>
</svg>
