<svg xmlns="http://www.w3.org/2000/svg" width="352" height="352" viewBox="0 0 352 352"><g transform="translate(176, 176) translate(-128, -128)"><svg width="256" height="256" viewBox="144 144 512 512"><path xmlns="http://www.w3.org/2000/svg" d="m564.45 352.3h51.43V205.03c0-33.816-51.43-33.816-51.43.0zm-268.23-29.383c-15.898.0-15.898-24.152.0-24.152H407.2c15.898.0 15.898 24.152.0 24.152zm0 178.31c-15.898.0-15.898-24.16.0-24.16H407.2c15.898.0 15.898 24.16.0 24.16zm0-89.156c-15.898.0-15.898-24.152.0-24.152H407.2c15.898.0 15.898 24.152.0 24.152zm154.77-138.72h43.188c6.6719.0 12.078 5.4023 12.078 12.074v50.816c0 6.6719-5.4102 12.078-12.078 12.078H450.99c-6.6719.0-12.078-5.4102-12.078-12.078v-50.816c0-6.6719 5.4102-12.074 12.078-12.074zm31.117 24.152h-19.035v26.66h19.035zm-31.117 154.16h43.188c6.6719.0 12.078 5.4102 12.078 12.078v50.816c0 6.6719-5.4102 12.074-12.078 12.074H450.99c-6.6719.0-12.078-5.4023-12.078-12.074v-50.816c0-6.6719 5.4102-12.078 12.078-12.078zm31.117 24.16h-19.035v26.66h19.035zm-31.117-113.31h43.188c6.6719.0 12.078 5.4023 12.078 12.074v50.816c0 6.6719-5.4102 12.074-12.078 12.074H450.99c-6.6719.0-12.078-5.4023-12.078-12.074v-50.816c0-6.6719 5.4102-12.074 12.078-12.074zm31.117 24.152h-19.035v26.66h19.035zm82.344-10.211v218.29c0 27.57-22.512 50.078-50.086 50.078h-304.31c-27.574.0-50.086-22.512-50.086-50.078v-26.785c0-6.6641 5.4102-12.074 12.078-12.074h53.906v-350.64c0-27.57 22.512-50.078 50.086-50.078h314.12c27.848.0 49.871 22.25 49.871 49.867v159.34c0 6.6719-5.4102 12.078-12.074 12.078h-63.512zm-17.738-197.14h-270.67c-14.234.0-25.934 11.691-25.934 25.926v350.64h226.25c6.6641.0 12.074 5.4102 12.074 12.074v26.785c0 14.234 11.691 25.926 25.934 25.926 14.234.0 25.934-11.691 25.934-25.926v-389.71c0-10.141 2.3867-18.707 6.4141-25.711zm-75.16 441.35c-4.6133-7.5703-7.2734-16.453-7.2734-25.926v-14.703h-280.16v14.703c0 14.234 11.691 25.926 25.934 25.926z" fill="#D4AF37"/></svg></g></svg>