<svg xmlns="http://www.w3.org/2000/svg" width="352" height="352" viewBox="0 0 352 352"><g transform="translate(176, 176) translate(-128, -128)"><svg width="256" height="256" viewBox="144 144 512 512"><g xmlns="http://www.w3.org/2000/svg"><path d="m370.82 381.95-10.18-10.18-4.6133 4.6133 20.359 20.355 67.59-67.59-4.6133-4.6094-57.41 57.41c-3.0742 3.0703-8.0586 3.0703-11.133.0z" fill="#d4af37"/><path d="m353.82 550.96c-10.562 3.418-21.996 2.9688-32.258-1.2734s-18.676-12-23.742-21.879c-2.5703-5.0469-7.5664-8.4102-13.211-8.8867l-66.809 72.887 86.09-18.453c3.6758-.78516 7.3945 1.1406 8.8789 4.5977l18.742 43.785 53.184-59.078v-.003906c-5.5117-1.8828-10.625-4.7852-15.074-8.5469-4.3555-3.7344-10.344-4.9297-15.801-3.1484z" fill="#d4af37"/><path d="m4e2 218.94c-37.582.0-73.621 14.93-100.2 41.504-26.574 26.57-41.504 62.613-41.504 100.19.0 37.582 14.93 73.621 41.504 100.2 26.574 26.574 62.613 41.504 100.2 41.504 37.578.0 73.621-14.93 100.19-41.504 26.574-26.574 41.504-62.613 41.504-100.2-.042968-37.566-14.988-73.582-41.551-100.14s-62.578-41.508-100.14-41.551zm5.9023 265.38-1.7695 1.0938c-2.5312 1.5586-5.7266 1.5586-8.2578.0l-1.7773-1.0938h-.003906c-31.781-19.723-58.027-47.199-76.273-79.852-18.246-32.652-27.891-69.406-28.031-106.81.0-4.3477 3.5273-7.875 7.875-7.875 32.691.03125 63.758-14.254 85.016-39.09l11.367-13.258c1.5391-1.668 3.707-2.6172 5.9766-2.6172 2.2695.0 4.4336.94922 5.9727 2.6172l11.32 13.258c21.262 24.836 52.324 39.121 85.02 39.09 2.0859.0 4.0898.83203 5.5664 2.3086 1.4766 1.4727 2.3047 3.4766 2.3047 5.5664-.13672 37.402-9.7852 74.156-28.027 106.81-18.246 32.652-44.496 60.129-76.277 79.852z" fill="#d4af37"/><path d="m405.39 260.95-5.3906-6.2969-5.3828 6.2969h-.003907c-22.434 26.203-54.527 42.195-88.953 44.336 1.3594 32.938 10.645 65.055 27.07 93.637 16.422 28.582 39.5 52.777 67.27 70.535 27.758-17.762 50.828-41.957 67.246-70.535 16.418-28.574 25.703-60.691 27.066-93.621-34.414-2.1602-66.492-18.156-88.922-44.352zm39.535 46.895 15.742 15.742v.003907c3.0742 3.0742 3.0742 8.0547.0 11.129l-78.719 78.719v.003906c-3.0742 3.0703-8.0586 3.0703-11.133.0l-31.488-31.488c-3.0742-3.0742-3.0742-8.0586.0-11.133l15.742-15.742h.003907c3.0742-3.0742 8.0547-3.0742 11.129.0l10.18 10.176 57.41-57.41c3.0742-3.0703 8.0586-3.0703 11.133.0z" fill="#d4af37"/><path d="m450.77 536.11c7.0117 2.2617 14.598 1.9492 21.398-.87109 6.8047-2.8242 12.383-7.9766 15.734-14.535 5.0703-10.004 14.996-16.633 26.18-17.484 7.3477-.57031 14.254-3.7422 19.473-8.9453 5.2188-5.1992 8.4141-12.094 9.0117-19.441.89844-11.09 7.4883-20.926 17.402-25.977 6.5586-3.3555 11.707-8.9414 14.523-15.75 2.8125-6.8086 3.1094-14.398.83594-21.406-3.4805-10.656-1.1484-22.359 6.1562-30.863 4.8047-5.6328 7.4414-12.793 7.4375-20.195.027344-7.3555-2.5859-14.473-7.3672-20.062-7.2266-8.4805-9.5352-20.105-6.0938-30.703 2.2617-7.0117 1.9531-14.598-.87109-21.398-2.8242-6.8047-7.9727-12.383-14.535-15.734-10.004-5.0703-16.633-14.996-17.48-26.18-.57422-7.3477-3.7461-14.254-8.9453-19.473-5.2031-5.2188-12.098-8.4141-19.441-9.0117-11.094-.89844-20.926-7.4844-25.98-17.402-3.3555-6.5703-8.9453-11.73-15.766-14.547-6.8203-2.8164-14.422-3.1055-21.438-.82031-10.652 3.4766-22.352 1.1445-30.855-6.1562-5.6562-4.6719-12.758-7.2344-20.094-7.2461-7.3359-.015625-14.445 2.5234-20.117 7.1758-8.4844 7.2188-20.105 9.5273-30.703 6.0938-7.0078-2.2617-14.594-1.9531-21.398.87109-6.8047 2.8242-12.379 7.9766-15.734 14.535-5.0664 10.004-14.996 16.633-26.18 17.48-7.3477.57422-14.25 3.7461-19.473 8.9453-5.2188 5.2031-8.4141 12.098-9.0078 19.441-.88672 11.117-7.4844 20.969-17.422 26.027-6.5586 3.3555-11.707 8.9414-14.523 15.75-2.8125 6.8086-3.1094 14.398-.83594 21.406 3.4844 10.656 1.1484 22.359-6.1562 30.863-4.793 5.6211-7.4297 12.762-7.4375 20.145-.027343 7.3555 2.5898 14.473 7.3672 20.059 7.2266 8.4805 9.5312 20.105 6.0938 30.703-2.2578 7.0078-1.9492 14.594.87109 21.398 2.8242 6.8047 7.9766 12.379 14.535 15.734 10.004 5.0664 16.633 14.996 17.484 26.18.57031 7.3477 3.7422 14.25 8.9453 19.473 5.2031 5.2188 12.094 8.4141 19.441 9.0078 11.113.88672 20.969 7.4844 26.023 17.422 3.3555 6.5625 8.9414 11.711 15.754 14.523 6.8086 2.8164 14.402 3.1133 21.41.83594 3.2266-1.043 6.5977-1.5742 9.9883-1.5742 7.6562.007812 15.059 2.7539 20.871 7.7383 5.6523 4.6719 12.754 7.2344 20.09 7.2461 7.3359.011719 14.449-2.5234 20.117-7.1758 8.4844-7.2305 20.109-9.5391 30.711-6.1016zM242.56 360.64c0-41.754 16.586-81.801 46.113-111.32 29.523-29.527 69.57-46.113 111.33-46.113 41.754.0 81.801 16.586 111.32 46.113 29.527 29.523 46.113 69.57 46.113 111.32.0 41.758-16.586 81.805-46.113 111.33-29.523 29.527-69.57 46.113-111.32 46.113-41.742-.046875-81.762-16.648-111.28-46.164-29.516-29.516-46.117-69.535-46.164-111.28z" fill="#d4af37"/><path d="m515.34 518.91c-5.7188.44922-10.785 3.8438-13.383 8.957-5.0508 9.8867-13.453 17.652-23.707 21.91-10.254 4.2539-21.688 4.7188-32.254 1.3125-5.4414-1.75-11.398-.55859-15.746 3.1484-4.418 3.7188-9.4922 6.5859-14.957 8.457l53.176 59.039 18.758-43.785c1.4844-3.457 5.2031-5.3828 8.8828-4.5977l86.09 18.453-66.816-72.895z" fill="#d4af37"/></g></svg></g></svg>