<svg xmlns="http://www.w3.org/2000/svg" width="352" height="352" viewBox="0 0 352 352"><g transform="translate(176, 176) translate(-128, -128)"><svg width="256" height="256" viewBox="144 144 512 512"><g xmlns="http://www.w3.org/2000/svg"><path d="m384.25 321.28h31.488v31.488H384.25z" fill="#D4AF37"/><path d="m604.67 447.23h-31.488v39.359c0 2.0898-.82812 4.0898-2.3047 5.5664-1.4766 1.4766-3.4805 2.3047-5.5664 2.3047h-47.234c-4.3477.0-7.8711-3.5234-7.8711-7.8711V447.23h-31.488v110.21h125.95zm-15.742 94.465h-15.746v-15.746h15.742z" fill="#D4AF37"/><path d="m462.98 321.28h-31.488v39.359c0 2.0898-.83203 4.0898-2.3086 5.5664-1.4766 1.4766-3.4766 2.3086-5.5664 2.3086h-47.23c-4.3477.0-7.8711-3.5273-7.8711-7.875V321.28h-31.488v110.21h125.95zm-15.742 94.465h-15.746v-15.742h15.742z" fill="#D4AF37"/><path d="m525.95 447.23h31.488v31.488H525.95z" fill="#D4AF37"/><path d="m384.25 447.23h31.488v31.488H384.25z" fill="#D4AF37"/><path d="m525.95 321.28h31.488v31.488H525.95z" fill="#D4AF37"/><path d="m470.85 573.18H179.58v15.742h440.83V573.18z" fill="#D4AF37"/><path d="m211.07 604.67h31.488v15.742H211.07z" fill="#D4AF37"/><path d="m557.44 604.67h31.488v15.742H557.44z" fill="#D4AF37"/><path d="m604.67 321.28h-31.488v39.359c0 2.0898-.82812 4.0898-2.3047 5.5664-1.4766 1.4766-3.4805 2.3086-5.5664 2.3086h-47.234c-4.3477.0-7.8711-3.5273-7.8711-7.875V321.28h-31.488v110.21h125.95zm-15.742 94.465h-15.746v-15.742h15.742z" fill="#D4AF37"/><path d="m384.25 604.67h31.488v15.742H384.25z" fill="#D4AF37"/><path d="m462.98 447.23h-31.488v39.359c0 2.0898-.83203 4.0898-2.3086 5.5664-1.4766 1.4766-3.4766 2.3047-5.5664 2.3047h-47.23c-4.3477.0-7.8711-3.5234-7.8711-7.8711V447.23h-31.488v110.21h125.95zm-15.742 94.465h-15.746v-15.746h15.742z" fill="#D4AF37"/><path d="m289.79 501.35v-12.172h-23.613c-4.3477.0-7.875-3.5273-7.875-7.8711v-309.6h-47.23v309.6c0 2.0859-.82812 4.0898-2.3047 5.5625-1.4766 1.4766-3.4805 2.3086-5.5664 2.3086h-23.617v12.172l55.105 48.215z" fill="#D4AF37"/><path d="m455.1 257.32v-12.172h-23.613c-4.3477.0-7.875-3.5234-7.875-7.8711v-65.562h-47.23v65.562c0 2.0898-.82812 4.0898-2.3047 5.5664-1.4766 1.4766-3.4805 2.3047-5.5664 2.3047h-23.617v12.172l55.105 48.215z" fill="#D4AF37"/><path d="m596.8 245.14c-4.3477.0-7.875-3.5234-7.875-7.8711v-65.562h-47.23v65.562c0 2.0898-.82812 4.0898-2.3047 5.5664-1.4766 1.4766-3.4805 2.3047-5.5664 2.3047h-23.617v12.172l55.105 48.215 55.105-48.215-.003907-12.172z" fill="#D4AF37"/></g></svg></g></svg>