<svg xmlns="http://www.w3.org/2000/svg" width="352" height="352" viewBox="0 0 352 352"><g transform="translate(176, 176) translate(-128, -128)"><svg width="256" height="256" viewBox="144 144 512 512"><path xmlns="http://www.w3.org/2000/svg" d="m379 169.09c-11.449.0-20.992 9.543-20.992 20.992v31.488h-83.969c-11.469.0-20.992 9.5234-20.992 20.992v62.977c0 11.469 9.5234 20.992 20.992 20.992h83.969v62.977h-130.3c-9.457.0-18.555 3.6992-25.34 10.293l-26.938 26.137c-8.2266 7.9922-8.4062 21.461-.41016 29.684l27.348 28.148c6.6523 6.8398 15.797 10.699 25.34 10.699l98.812-.003906c2.7812.0 5.4531-1.1055 7.4219-3.0742 1.9688-1.9648 3.0742-4.6367 3.0742-7.4219.0-2.7812-1.1055-5.4531-3.0742-7.418-1.9688-1.9688-4.6406-3.0742-7.4219-3.0742h-98.809c-3.8789.0-7.5859-1.5625-10.293-4.3477l-27.348-28.125 26.918-26.156c2.8711-2.793 6.7148-4.3477 10.719-4.3477h298.23v62.977h-157.44.003907c-2.7852.0-5.4531 1.1055-7.4219 3.0742-1.9688 1.9648-3.0742 4.6367-3.0742 7.418v73.473h-36.734c-20.172.0-36.734 16.566-36.734 36.734l-.003906 26.242c0 5.7969 4.6992 10.496 10.496 10.496h209.92-.003907c5.7969.0 10.496-4.6992 10.496-10.496v-26.238c0-20.172-16.566-36.734-36.734-36.734h-36.734v-62.977h83.969c11.469.0 20.992-9.5234 20.992-20.992v-62.977c0-11.469-9.5234-20.992-20.992-20.992h-83.969v-62.977h130.3c9.5391.0 18.688-3.8594 25.34-10.699l27.348-28.148c7.9961-8.2227 7.8203-21.691-.41016-29.684l-26.938-26.137c-6.7852-6.5938-15.883-10.293-25.34-10.293h-130.3v-31.488c0-11.449-9.543-20.992-20.992-20.992zm0 20.992h41.984v31.488H379zm-104.96 52.48h298.23c4.0039.0 7.8516 1.5547 10.723 4.3477l26.918 26.156-27.348 28.125c-2.7031 2.7812-6.4102 4.3477-10.289 4.3477h-298.23zM379 326.531h41.984v62.977H379zm0 167.94h41.984v62.977H379zm-57.727 83.969h157.44c8.9023.0 15.742 6.8398 15.742 15.742v15.742h-188.93v-15.742c0-8.9023 6.8398-15.742 15.742-15.742z" fill="#d4af37"/></svg></g></svg>