<svg xmlns="http://www.w3.org/2000/svg" width="352" height="352" viewBox="0 0 352 352"><g transform="translate(176, 176) translate(-128, -128)"><svg width="256" height="256" viewBox="144 144 512 512"><g xmlns="http://www.w3.org/2000/svg"><path d="m281.43 637.05h-37.043c-44.93.0-81.5-36.555-81.5-81.5V244.44c0-44.941 36.57-81.5 81.5-81.5h37.043c12.27.0 22.227 9.9414 22.227 22.227.0 12.285-9.957 22.227-22.227 22.227h-37.043c-20.434.0-37.043 16.625-37.043 37.043v311.12c0 20.434 16.609 37.043 37.043 37.043h37.043c12.27.0 22.227 9.9414 22.227 22.227.0 12.289-9.957 22.23-22.227 22.23z" fill="#ff0000"/><path d="m630.57 415.72-155.59 155.59c-4.2969 4.2969-9.9258 6.5039-15.707 6.5039-2.8164.0-5.7773-.59375-8.5938-1.6289-8.2969-3.5547-13.633-11.559-13.633-20.598v-66.68h-170.41c-12.301.0-22.227-9.9297-22.227-22.227V333.32c0-12.301 9.9297-22.227 22.227-22.227h170.41v-66.68c0-9.0391 5.3359-17.039 13.633-20.598 8.2969-3.4062 17.93-1.4805 24.301 4.8906l155.59 155.59c8.7266 8.7578 8.7266 22.816.0 31.426z" fill="#ff0000"/></g></svg></g></svg>