<svg xmlns="http://www.w3.org/2000/svg" width="352" height="352" viewBox="0 0 352 352"><g transform="translate(176, 176) translate(-128, -128)"><svg width="256" height="256" viewBox="144 144 512 512"><defs xmlns="http://www.w3.org/2000/svg"><clipPath id="a"><path d="m148.09 148.09H651.9V651.9H148.09z" fill="#D4AF37"/></clipPath></defs><g xmlns="http://www.w3.org/2000/svg" clip-path="url(#a)"><path d="m620.41 148.09H179.58c-17.844.0-31.488 13.645-31.488 31.488v440.83c0 17.844 13.645 31.488 31.488 31.488h440.83c17.844.0 31.488-13.645 31.488-31.488v-440.83c0-17.844-13.645-31.488-31.488-31.488zm-91.312 33.586c11.547.0 20.992 9.4453 20.992 20.992s-9.4453 20.992-20.992 20.992c-11.547.0-20.992-9.4453-20.992-20.992.0-11.543 9.4453-20.992 20.992-20.992zm-347.42 20.992c0-11.547 9.4453-20.992 20.992-20.992h218.32c11.547.0 20.992 9.4453 20.992 20.992s-9.4453 20.992-20.992 20.992H202.67c-11.543.0-20.992-9.4453-20.992-20.992zm425.09 399.9h-413.54v-336.92h412.49l.003906 336.92zm-9.4453-378.91c-11.547.0-20.992-9.4453-20.992-20.992s9.4453-20.992 20.992-20.992 20.992 9.4453 20.992 20.992-9.4453 20.992-20.992 20.992z" fill="#D4AF37"/></g><path xmlns="http://www.w3.org/2000/svg" d="m244.66 459.82 29.391-14.691 29.387 14.691-6.2969-32.535 24.141-22.043-32.535-5.2461-14.695-29.391-14.695 29.391-32.539 5.2461 24.141 22.043z" fill="#D4AF37"/><path xmlns="http://www.w3.org/2000/svg" d="m370.61 459.82 29.391-14.691 29.387 14.691-6.2969-32.535 24.141-22.043-32.539-5.2461-14.691-29.391-14.695 29.391-32.539 5.2461 24.141 22.043z" fill="#D4AF37"/><path xmlns="http://www.w3.org/2000/svg" d="m496.56 459.82 29.387-14.691 29.391 14.691-6.2969-32.535 24.141-22.043-32.539-5.2461-14.695-29.391-14.691 29.391-32.539 5.2461 24.141 22.043z" fill="#D4AF37"/></svg></g></svg>