<svg xmlns="http://www.w3.org/2000/svg" width="352" height="352" viewBox="0 0 352 352"><g transform="translate(176, 176) translate(-128, -128)"><svg width="256" height="256" viewBox="144 144 512 512"><defs xmlns="http://www.w3.org/2000/svg"><clipPath id="a"><path d="m186 148.09h428V651.9H186z" fill="#D4AF37"/></clipPath></defs><g xmlns="http://www.w3.org/2000/svg" clip-path="url(#a)"><path d="m610.02 232.88c-2.4375-2.1406-5.6719-3.1445-8.8945-2.7539-119.26 15.348-191.45-76.91-192.16-77.855-2.2305-2.6484-5.5117-4.1758-8.9727-4.1758s-6.7461 1.5273-8.9766 4.1758c-.70703.94531-72.422 93.363-192.16 77.855-3.2227-.39062-6.457.61328-8.8945 2.7539-2.457 2.1406-3.8633 5.2422-3.8555 8.5039v163.42c-.22266 50.207 17.664 98.809 50.379 136.89 39.359 45.105 92.574 81.949 159.17 109.42 2.7734 1.1523 5.8906 1.1523 8.6602.0 66.52-27.555 120.13-64.395 159.17-109.42 32.695-38.066 50.582-86.637 50.383-136.82v-163.5c.003907-3.2617-1.4023-6.3633-3.8594-8.5039zm-18.734 171.93c.20703 44.73-15.695 88.043-44.793 122.02-35.895 41.484-85.176 75.652-146.5 101.47-61.324-25.898-110.21-60.062-146.5-101.55-29.082-33.953-44.98-77.234-44.793-121.94V253.83c5.9844.47266 11.887.70703 17.633.70703 91.395.0 151.85-54.555 173.66-78.09 23.617 25.031 89.977 85.098 191.29 77.383z" fill="#D4AF37"/></g><path xmlns="http://www.w3.org/2000/svg" d="m560.9 272.79c-56.77-2.6836-110.85-24.969-153.03-63.055-4.2656-3.7891-10.691-3.7891-14.957.0-42.309 38.125-96.535 60.383-153.43 62.977-6.0742.25391-10.867 5.2578-10.863 11.336v120.84c-.17969 40.062 14.07 78.848 40.148 109.27 35.133 38.992 78.324 69.883 126.58 90.527 2.9648 1.2578 6.3203 1.2578 9.2891.0 48.395-20.598 91.727-51.488 126.97-90.527 26.078-30.418 40.328-69.203 40.148-109.27v-120.76c.003906-6.0781-4.7891-11.082-10.863-11.336zm-11.336 132.09c.19922 34.629-12.102 68.172-34.637 94.465-31.996 35.395-71.18 63.547-114.93 82.578-43.613-19.078-82.66-47.23-114.54-82.578-22.535-26.293-34.836-59.836-34.637-94.465V294.67c55.027-4.6484 107.27-26.207 149.57-61.719 42.281 35.539 94.535 57.098 149.57 61.719z" fill="#D4AF37"/><path xmlns="http://www.w3.org/2000/svg" d="m370.95 305.54c-9.9102 10.512-13.531 25.477-9.5234 39.359l27.711 101.47c1.1641 5.0742 5.6562 8.6875 10.863 8.7383 5.1016-.023437 9.5664-3.4297 10.941-8.3438l27.629-101.86c3.2891-11.586 1.2344-24.031-5.6016-33.945-6.8359-9.9141-17.738-16.258-29.734-17.305-11.996-1.0508-23.832 3.3125-32.285 11.891zm45.816 33.613L4e2 400.633l-16.766-61.559h-.003906c-2.0117-6.168-.60547-12.941 3.6992-17.793 3.4609-3.4805 8.1641-5.4375 13.07-5.4375s9.6094 1.957 13.066 5.4375c4.3047 4.8516 5.7148 11.625 3.6992 17.793z" fill="#D4AF37"/><path xmlns="http://www.w3.org/2000/svg" d="m4e2 462.98c-7.4336.0-14.562 2.9492-19.816 8.207-5.2578 5.2539-8.2109 12.383-8.2109 19.816s2.9531 14.559 8.2109 19.816c5.2539 5.2539 12.383 8.207 19.816 8.207 7.4297.0 14.559-2.9531 19.816-8.207 5.2539-5.2578 8.207-12.383 8.207-19.816-.019532-7.4258-2.9805-14.543-8.2305-19.793-5.2539-5.2539-12.367-8.2109-19.793-8.2305zm0 33.457v-.003906c-2.1992.0-4.1797-1.3242-5.0195-3.3516-.83984-2.0312-.375-4.3672 1.1758-5.918 1.5547-1.5547 3.8906-2.0195 5.9219-1.1797 2.0273.83984 3.3516 2.8203 3.3516 5.0195.042968 1.4648-.51172 2.8906-1.5352 3.9414-1.0234 1.0547-2.4297 1.6484-3.8945 1.6484z" fill="#D4AF37"/></svg></g></svg>