<?xml version="1.0" encoding="UTF-8"?>
<svg xmlns="http://www.w3.org/2000/svg" xmlns:xlink="http://www.w3.org/1999/xlink" width="25px" height="25px" viewBox="0 0 25 25" version="1.1">
<g id="surface1">
<path style=" stroke:none;fill-rule:nonzero;fill:rgb(0%,80.000001%,100%);fill-opacity:1;" d="M 12.5 5.789062 C 14.570312 5.789062 16.472656 6.738281 17.71875 8.28125 L 17.71875 6.539062 C 17.71875 6.15625 18.003906 5.84375 18.371094 5.796875 L 18.464844 5.792969 C 18.84375 5.792969 19.15625 6.074219 19.203125 6.445312 L 19.210938 6.539062 L 19.210938 10.261719 C 19.210938 10.644531 18.925781 10.957031 18.558594 11.003906 L 18.464844 11.007812 L 14.734375 11.007812 C 14.320312 11.007812 13.988281 10.675781 13.988281 10.261719 C 13.988281 9.882812 14.273438 9.570312 14.640625 9.523438 L 14.734375 9.519531 L 16.78125 9.515625 C 15.824219 8.140625 14.242188 7.28125 12.5 7.28125 C 9.617188 7.28125 7.28125 9.617188 7.28125 12.5 C 7.28125 15.382812 9.617188 17.71875 12.5 17.71875 C 15.136719 17.71875 17.351562 15.75 17.675781 13.15625 C 17.730469 12.746094 18.101562 12.457031 18.511719 12.507812 C 18.917969 12.558594 19.207031 12.933594 19.15625 13.339844 C 18.738281 16.679688 15.890625 19.210938 12.5 19.210938 C 8.792969 19.210938 5.789062 16.207031 5.789062 12.5 C 5.789062 8.792969 8.792969 5.789062 12.5 5.789062 Z M 12.5 5.789062 "/>
</g>
</svg>
