<svg xmlns="http://www.w3.org/2000/svg" width="352" height="352" viewBox="0 0 352 352"><g transform="translate(176, 176) translate(-128, -128)"><svg width="256" height="256" viewBox="144 144 512 512"><g xmlns="http://www.w3.org/2000/svg"><path d="m608.53 377.3c31.754-31.754 42.289-76.609 31.816-117.16l-75.051 75.051-70.289-17.391-17.391-70.289 75.051-75.051c-40.551-10.473-85.402.0625-117.16 31.816-36.41 36.41-44.992 90-25.938 134.56l-136.12 136.15c-21.969-2.75-44.898 4.2305-61.785 21.113-28.977 28.977-28.977 76.016.0 105.02 29.008 29.008 76.031 28.977 105.05.0 16.855-16.855 23.863-39.801 21.082-61.785l136.15-136.12c44.629 19.074 98.199 10.477 134.58-25.918zM274.84 588.26l-39.664-10.609-10.609-39.633 29.008-29.039 39.664 10.609 10.609 39.664z" fill="#d4af37"/><path d="m483.6 422.67-93.418 93.449 103.71 103.71c15.48 15.48 40.551 15.48 56.031.0l37.391-37.391c15.48-15.48 15.48-40.578.0-56.059zm36.137 167.49c-4.5664 4.5664-11.953 4.5664-16.52.0l-66.883-66.883c-4.5664-4.5664-4.5664-11.953.0-16.52 4.5664-4.5664 11.922-4.5664 16.488.0l66.914 66.914c4.5625 4.5625 4.5625 11.922.0 16.488zm37.922-37.895c-4.5664 4.5352-11.953 4.5352-16.52.0l-66.883-66.914c-4.5938-4.5664-4.5938-11.953-.03125-16.52 4.5664-4.5664 11.953-4.5664 16.52.0l66.914 66.914c4.5664 4.5508 4.5352 11.957.0 16.52z" fill="#d4af37"/><path d="m244.78 361.25c4.7773 5.6328 12.945 5.9688 18.184.75l12.352-12.352 47.234 47.207 41.77-41.801-47.207-47.207 12.352-12.383c5.25-5.2227 4.8867-13.391-.75-18.184l-101.29-85.691c-5.6328-4.7773-14.52-4.3828-19.773.82422l-47.77 47.77c-5.207 5.2227-5.5703 14.137-.79297 19.77z" fill="#d4af37"/></g></svg></g></svg>