<svg xmlns="http://www.w3.org/2000/svg" width="352" height="352" viewBox="0 0 352 352"><g transform="translate(176, 176) translate(-128, -128)"><svg width="256" height="256" viewBox="144 144 512 512"><path xmlns="http://www.w3.org/2000/svg" d="m462.11 337.89c1.8945 1.8945 2.957 4.4609 2.957 7.1406.0 2.6758-1.0625 5.2461-2.957 7.1367l-109.95 109.95c-1.8906 1.9102-4.4609 2.9844-7.1484 2.9922-2.6836.003907-5.2617-1.0586-7.1641-2.957-1.8984-1.8984-2.9609-4.4766-2.957-7.1641.007813-2.6875 1.0859-5.2578 2.9922-7.1484l109.95-109.95c3.9453-3.9336 10.332-3.9336 14.277.0zm-9.7031 101.87c-5.1172.003906-9.7305 3.0859-11.691 7.8164-1.957 4.7305-.87109 10.172 2.7461 13.793 3.6211 3.6172 9.0664 4.6992 13.793 2.7383 4.7305-1.957 7.8125-6.5742 7.8125-11.691-.007812-6.9883-5.6719-12.648-12.66-12.656zm-104.82-79.512c5.1172.0 9.7344-3.0859 11.691-7.8164 1.957-4.7266.87109-10.172-2.7461-13.789-3.6211-3.6211-9.0664-4.7031-13.793-2.7422-4.7305 1.957-7.8125 6.5742-7.8125 11.691.007812 6.9883 5.6719 12.648 12.66 12.656zm271.98 69.988c-6.918 6.8203-11.891 15.359-14.402 24.742-2.5156 9.3828-2.4805 19.266.10156 28.633 3.0195 10.953 1.5234 22.66-4.1602 32.504-5.6797 9.8398-15.07 16.992-26.066 19.855-9.4023 2.4453-17.98 7.3594-24.848 14.227-6.8711 6.8672-11.785 15.445-14.23 24.848-2.8594 11-10.012 20.391-19.855 26.074-9.8398 5.6797-21.551 7.1758-32.504 4.1523-9.3672-2.5742-19.246-2.6055-28.629-.089844-9.3789 2.5117-17.922 7.4805-24.742 14.395-7.9805 8.0938-18.871 12.652-30.234 12.652-11.367.0-22.258-4.5586-30.238-12.652-6.8164-6.918-15.359-11.891-24.738-14.402-9.3828-2.5156-19.266-2.4805-28.629.097656-10.957 3.0234-22.668 1.5273-32.512-4.1523-9.8438-5.6836-16.992-15.078-19.852-26.078-2.4492-9.4023-7.3594-17.977-14.23-24.844-6.8672-6.8711-15.445-11.781-24.848-14.227-10.996-2.8633-20.387-10.016-26.066-19.855-5.6836-9.8438-7.1797-21.551-4.1602-32.504 2.582-9.3672 2.6172-19.25.10547-28.633-2.5156-9.3828-7.4883-17.922-14.406-24.742-8.0938-7.9766-12.652-18.867-12.652-30.23.0-11.367 4.5586-22.254 12.652-30.234 6.918-6.8164 11.891-15.359 14.406-24.742 2.5117-9.3828 2.4766-19.266-.10547-28.629-3.0195-10.957-1.5234-22.664 4.1602-32.508 5.6797-9.8398 15.07-16.992 26.066-19.855 9.4023-2.4453 17.98-7.3555 24.852-14.227 6.8672-6.8672 11.781-15.445 14.227-24.848 2.8594-10.996 10.012-20.391 19.855-26.07 9.8398-5.6836 21.551-7.1797 32.508-4.1562 9.3633 2.5859 19.246 2.6211 28.629.10547 9.3828-2.5156 17.922-7.4883 24.742-14.41 7.9766-8.0938 18.867-12.652 30.234-12.652 11.363.0 22.254 4.5586 30.234 12.652 6.8164 6.918 15.359 11.891 24.742 14.406 9.3789 2.5156 19.266 2.4805 28.629-.10156 10.953-3.0234 22.664-1.5273 32.508 4.1562 9.8438 5.6836 16.996 15.074 19.852 26.074 2.4492 9.4023 7.3594 17.977 14.23 24.848 6.8672 6.8672 15.445 11.777 24.848 14.223 10.996 2.8633 20.387 10.016 26.066 19.855 5.6836 9.8438 7.1797 21.551 4.1602 32.508-2.582 9.3633-2.6172 19.246-.10156 28.629 2.5117 9.3828 7.4844 17.926 14.402 24.742 8.0938 7.9805 12.652 18.867 12.652 30.234.0 11.363-4.5586 22.254-12.652 30.23zm-296.76-82.645c0 6.5703 2.6094 12.871 7.2578 17.516 4.6445 4.6484 10.945 7.2578 17.516 7.2578 6.5703.0 12.871-2.6094 17.516-7.2539 4.6445-4.6445 7.2578-10.945 7.2578-17.516.0-6.5703-2.6094-12.871-7.2539-17.52-4.6445-4.6445-10.945-7.2539-17.516-7.2578-6.5664.007812-12.863 2.6211-17.512 7.2656-4.6445 4.6445-7.2578 10.941-7.2656 17.508zm154.37 104.82c0-6.5703-2.6094-12.871-7.2539-17.516-4.6484-4.6445-10.949-7.2578-17.52-7.2578-6.5664.0-12.867 2.6094-17.516 7.2539-4.6445 4.6484-7.2539 10.949-7.2578 17.516.0 6.5703 2.6094 12.871 7.2539 17.52 4.6445 4.6445 10.945 7.2578 17.516 7.2578 6.5703-.007813 12.867-2.6211 17.512-7.2656 4.6445-4.6406 7.2578-10.938 7.2656-17.508zm0-107.38c0-5.8906-2.3438-11.539-6.5078-15.707-4.1641-4.1641-9.8125-6.5039-15.703-6.5039s-11.543 2.3398-15.707 6.5039l-109.95 109.95c-5.6094 5.6094-7.8008 13.789-5.7461 21.453 2.0508 7.6641 8.0391 13.652 15.703 15.707 7.6641 2.0508 15.844-.14062 21.453-5.75l109.95-109.95c4.1797-4.1523 6.5234-9.8086 6.5078-15.703z" fill="#D4AF37"/></svg></g></svg>