<svg xmlns="http://www.w3.org/2000/svg" width="352" height="352" viewBox="0 0 352 352"><g transform="translate(176, 176) translate(-128, -128)"><svg width="256" height="256" viewBox="144 144 512 512"><g xmlns="http://www.w3.org/2000/svg"><path d="m450.38 561.22c-6.9414-.011719-13.805-1.4648-20.152-4.2734v44.578c.007813 8.0117 3.1953 15.695 8.8633 21.363s13.352 8.8555 21.367 8.8633h130.99c8.0156-.007812 15.699-3.1953 21.367-8.8633 5.6641-5.668 8.8516-13.352 8.8633-21.363v-44.578c-6.3477 2.8086-13.211 4.2617-20.152 4.2734z" fill="#D4AF37"/><path d="m611.6 440.3h-40.305v-30.23c.003906-2.6719-1.0586-5.2344-2.9492-7.125s-4.4531-2.9531-7.125-2.9492h-70.535c-2.6719-.003906-5.2344 1.0586-7.125 2.9492s-2.9531 4.4531-2.9492 7.125v30.23h-50.383c-2.6719-.003907-5.2344 1.0586-7.125 2.9492s-2.9531 4.4531-2.9492 7.125v60.457c.007812 8.0156 3.1953 15.699 8.8633 21.367 5.6641 5.6641 13.348 8.8516 21.363 8.8633h20.152v-30.23c0-5.5625 4.5117-10.074 10.078-10.074 5.5625.0 10.074 4.5117 10.074 10.074v30.23h70.535v-30.23c0-5.5625 4.5117-10.074 10.074-10.074 5.5664.0 10.078 4.5117 10.078 10.074v30.23h20.152c8.0117-.011718 15.695-3.1992 21.363-8.8633 5.668-5.668 8.8555-13.352 8.8633-21.367v-50.379c-.007812-5.3438-2.1328-10.465-5.9102-14.242s-8.8984-5.9062-14.242-5.9102zm-60.457.0h-50.379v-20.152h50.383z" fill="#D4AF37"/><path d="m405.05 433.7-7.3164-1.8281-7.5859-22.758v-.003907c18.605-10.855 32.121-28.676 37.559-49.52.83984.082031 1.6797.11719 2.5195.10156 10.395.007813 20.391-4 27.895-11.191 7.5078-7.1875 11.941-17.004 12.375-27.387.43359-10.387-3.1641-20.535-10.039-28.328v-23.781c-.046875-26.711-10.676-52.312-29.562-71.199-18.887-18.887-44.492-29.52-71.199-29.562h-20.152c-26.711.042968-52.316 10.676-71.203 29.562-18.887 18.887-29.516 44.488-29.559 71.199v23.781c-6.8789 7.793-10.477 17.941-10.043 28.328.43359 10.383 4.8711 20.199 12.375 27.387 7.5039 7.1914 17.5 11.199 27.895 11.191.83984.015626 1.6836-.019531 2.5195-.10156 5.4414 20.844 18.953 38.664 37.559 49.523l-7.5859 22.758-34.938 8.7344c-3.1289.78125-5.6914 3.0117-6.8984 6.0039-1.207 2.9883-.91016 6.375.79688 9.1094l50.383 80.609c1.7617 2.8164 4.7969 4.5859 8.1172 4.7227.14453.011718.28516.011718.42969.011718 3.1719.0 6.1562-1.4961 8.0586-4.0352l22.168-29.559 22.168 29.559h.003906c1.8984 2.5391 4.8867 4.0352 8.0586 4.0352.14453.0.28516.0.42969-.011718h-.003906c3.3203-.14063 6.3555-1.9062 8.1172-4.7227l12.121-19.398h.003906c-.30078-2.0195-.47266-4.0547-.51562-6.0977v-60.457c-.003906-5.9336 1.7539-11.738 5.0508-16.676zm25.176-134.46c7.1992.0 13.852 3.8398 17.453 10.074 3.6016 6.2344 3.6016 13.918.0 20.152-3.6016 6.2344-10.254 10.078-17.453 10.078zm-161.22 40.305c-7.1992.0-13.852-3.8438-17.453-10.078-3.5977-6.2344-3.5977-13.918.0-20.152 3.6016-6.2344 10.254-10.074 17.453-10.074zm20.453 6.1445c-.20313-2.043-.30469-4.0938-.30078-6.1445l.20312-57.434v-.003906c39.691 9.3906 81.031 9.3555 120.71-.097657v57.535c.003906 2.0156-.097657 4.0352-.30078 6.043.0.10156-.10156.20312.0.30078v.003906c-2.1211 20.004-14.047 37.648-31.824 47.07-17.777 9.4219-39.074 9.3867-56.82-.09375-17.746-9.4805-29.613-27.164-31.668-47.18zm60.156 128.87-29.012-36.262 7.0781-21.23v-.003906c14.332 4.125 29.535 4.125 43.867.0l7.0781 21.23z" fill="#D4AF37"/><path d="m355.64 549.09-6.0273-8.0352-6.0469 8.0625v.003906c-4.9648 6.4961-12.355 10.703-20.48 11.652l-15.77 70.973h84.598l-15.77-70.973h-.003907c-8.1328-.95312-15.531-5.1719-20.5-11.684z" fill="#D4AF37"/><path d="m293.76 547.03-50.387-80.629c-3.4609-5.6367-4.9727-12.254-4.3086-18.836-20.895 8.2422-38.824 22.582-51.457 41.156-12.629 18.574-19.379 40.523-19.363 62.984v69.973c0 2.6719 1.0625 5.2344 2.9492 7.125 1.8906 1.8906 4.4531 2.9492 7.1289 2.9492h108.36l16.711-75.195-.003906.003906c-3.8828-2.4141-7.1719-5.6719-9.625-9.5312z" fill="#D4AF37"/></g></svg></g></svg>