<?xml version="1.0" encoding="UTF-8"?>
<svg xmlns="http://www.w3.org/2000/svg" xmlns:xlink="http://www.w3.org/1999/xlink" width="64px" height="64px" viewBox="0 0 64 64" version="1.1">
<g id="surface1">
<path style=" stroke:none;fill-rule:nonzero;fill:rgb(0%,0%,0%);fill-opacity:1;" d="M 28.0625 17.238281 L 30.03125 17.238281 L 30.03125 19.207031 L 28.0625 19.207031 Z M 28.0625 17.238281 "/>
<path style=" stroke:none;fill-rule:nonzero;fill:rgb(0%,0%,0%);fill-opacity:1;" d="M 33.96875 17.238281 L 35.933594 17.238281 L 35.933594 19.207031 L 33.96875 19.207031 Z M 33.96875 17.238281 "/>
<path style=" stroke:none;fill-rule:nonzero;fill:rgb(0%,0%,0%);fill-opacity:1;" d="M 46.96875 34.640625 L 42.777344 33.242188 C 42.855469 32.988281 42.820312 32.714844 42.6875 32.484375 C 42.554688 32.257812 42.335938 32.089844 42.078125 32.03125 L 38.140625 31.046875 C 37.871094 30.976562 37.585938 31.027344 37.355469 31.179688 L 36.917969 31.476562 L 36.917969 29.519531 C 39.375 27.875 40.851562 25.117188 40.855469 22.160156 L 41.839844 22.160156 C 42.859375 22.160156 43.808594 21.632812 44.347656 20.765625 C 44.886719 19.898438 44.933594 18.8125 44.480469 17.898438 C 44.023438 16.988281 43.125 16.375 42.109375 16.285156 L 43.164062 12.066406 C 43.796875 9.523438 43.226562 6.832031 41.617188 4.769531 C 40.003906 2.703125 37.53125 1.496094 34.910156 1.496094 L 32.058594 1.496094 C 31.257812 1.496094 30.484375 1.761719 29.855469 2.253906 C 29.226562 2.746094 28.777344 3.433594 28.585938 4.207031 C 28.40625 4.929688 27.757812 5.433594 27.019531 5.433594 L 24.128906 5.433594 C 23.082031 5.433594 22.082031 5.847656 21.34375 6.585938 C 20.605469 7.324219 20.191406 8.324219 20.191406 9.367188 C 20.195312 11.753906 20.679688 14.117188 21.617188 16.3125 C 20.648438 16.5 19.839844 17.160156 19.460938 18.066406 C 19.078125 18.972656 19.175781 20.011719 19.71875 20.832031 C 20.257812 21.65625 21.175781 22.152344 22.160156 22.160156 L 23.144531 22.160156 C 23.144531 25.117188 24.621094 27.875 27.078125 29.519531 L 27.078125 31.472656 L 26.640625 31.179688 C 26.410156 31.023438 26.125 30.972656 25.855469 31.042969 L 21.917969 32.027344 C 21.660156 32.089844 21.441406 32.253906 21.308594 32.484375 C 21.175781 32.710938 21.140625 32.988281 21.21875 33.242188 L 17.027344 34.636719 C 15.652344 35.09375 14.460938 35.972656 13.617188 37.144531 C 12.769531 38.320312 12.316406 39.730469 12.320312 41.175781 L 12.320312 51.679688 C 12.320312 52.984375 12.839844 54.234375 13.761719 55.15625 C 14.683594 56.078125 15.933594 56.597656 17.238281 56.601562 L 19.207031 56.601562 L 19.207031 61.519531 C 19.207031 61.78125 19.3125 62.03125 19.496094 62.214844 C 19.679688 62.402344 19.929688 62.503906 20.191406 62.503906 L 43.808594 62.503906 C 43.933594 62.503906 44.058594 62.476562 44.171875 62.429688 L 44.191406 62.421875 L 47.234375 61.203125 C 47.96875 60.914062 48.59375 60.410156 49.035156 59.761719 C 49.476562 59.109375 49.714844 58.339844 49.710938 57.554688 L 49.710938 56.601562 L 50.695312 56.601562 C 50.957031 56.601562 51.207031 56.496094 51.390625 56.3125 C 51.578125 56.128906 51.679688 55.878906 51.679688 55.617188 L 51.679688 41.175781 C 51.679688 39.730469 51.226562 38.320312 50.382812 37.148438 C 49.535156 35.972656 48.34375 35.097656 46.96875 34.640625 Z M 38.085938 33.0625 L 40.570312 33.679688 L 38.414062 40.140625 L 33.625 36.035156 Z M 42.824219 19.207031 C 42.824219 19.46875 42.71875 19.71875 42.535156 19.90625 C 42.351562 20.089844 42.101562 20.191406 41.839844 20.191406 L 40.855469 20.191406 L 40.855469 18.222656 L 41.839844 18.222656 C 42.101562 18.222656 42.351562 18.328125 42.535156 18.511719 C 42.71875 18.695312 42.824219 18.949219 42.824219 19.207031 Z M 24.128906 7.402344 L 27.019531 7.402344 C 27.816406 7.402344 28.59375 7.132812 29.222656 6.644531 C 29.855469 6.152344 30.300781 5.464844 30.492188 4.6875 C 30.671875 3.96875 31.320312 3.464844 32.058594 3.464844 L 34.914062 3.464844 C 36.925781 3.464844 38.828125 4.390625 40.066406 5.980469 C 41.304688 7.566406 41.746094 9.632812 41.257812 11.585938 L 40.285156 15.480469 C 39.914062 14.820312 39.378906 14.273438 38.726562 13.890625 C 38.078125 13.507812 37.335938 13.304688 36.582031 13.304688 C 33.277344 13.3125 30.105469 12 27.773438 9.65625 C 27.574219 9.453125 27.292969 9.351562 27.011719 9.371094 C 26.726562 9.390625 26.464844 9.535156 26.292969 9.761719 L 23.339844 13.699219 C 23.210938 13.867188 23.144531 14.074219 23.144531 14.289062 L 23.144531 14.816406 C 22.496094 13.074219 22.164062 11.226562 22.160156 9.367188 C 22.160156 8.847656 22.367188 8.34375 22.734375 7.976562 C 23.105469 7.605469 23.605469 7.398438 24.128906 7.398438 Z M 22.160156 20.191406 C 21.617188 20.191406 21.175781 19.753906 21.175781 19.210938 C 21.175781 18.664062 21.617188 18.226562 22.160156 18.226562 L 23.144531 18.226562 L 23.144531 20.191406 Z M 25.109375 22.160156 L 25.109375 14.617188 L 27.210938 11.816406 C 29.820312 14.054688 33.144531 15.28125 36.582031 15.273438 C 37.191406 15.273438 37.777344 15.515625 38.210938 15.949219 C 38.644531 16.382812 38.886719 16.96875 38.886719 17.578125 L 38.886719 22.160156 C 38.886719 24.621094 37.574219 26.894531 35.441406 28.125 C 33.3125 29.355469 30.6875 29.355469 28.554688 28.125 C 26.425781 26.894531 25.109375 24.621094 25.109375 22.160156 Z M 29.046875 30.5 C 30.953125 31.1875 33.042969 31.1875 34.949219 30.5 L 34.949219 32.789062 L 32 34.757812 L 29.046875 32.789062 Z M 25.910156 33.058594 L 30.371094 36.035156 L 25.582031 40.140625 L 23.429688 33.683594 Z M 21.175781 56.601562 L 23.144531 56.601562 L 23.144531 60.539062 L 21.175781 60.539062 Z M 36.425781 53.648438 L 32 53.648438 L 32 50.695312 L 36.429688 50.695312 L 36.425781 50.695312 C 37.242188 50.695312 37.902344 51.359375 37.902344 52.171875 C 37.902344 52.988281 37.242188 53.648438 36.425781 53.648438 Z M 35.9375 48.730469 L 32 48.730469 C 32 48.46875 31.894531 48.21875 31.710938 48.035156 C 31.527344 47.847656 31.277344 47.746094 31.015625 47.746094 L 25.113281 47.746094 L 25.113281 45.777344 L 35.9375 45.777344 Z M 32 55.617188 L 35.9375 55.617188 L 35.9375 60.539062 L 25.113281 60.539062 L 25.113281 56.601562 L 31.015625 56.601562 C 31.277344 56.601562 31.527344 56.496094 31.710938 56.3125 C 31.894531 56.128906 32 55.878906 32 55.617188 Z M 47.742188 57.554688 C 47.746094 57.949219 47.628906 58.332031 47.40625 58.660156 C 47.1875 58.984375 46.871094 59.238281 46.507812 59.382812 L 44.789062 60.070312 L 44.792969 56.601562 L 47.742188 56.601562 Z M 49.710938 54.632812 L 44.792969 54.632812 L 44.792969 44.792969 L 42.824219 44.792969 L 42.824219 60.535156 L 37.902344 60.535156 L 37.902344 55.269531 C 38.691406 54.902344 39.3125 54.242188 39.632812 53.433594 C 39.953125 52.621094 39.953125 51.71875 39.632812 50.910156 C 39.3125 50.097656 38.691406 49.441406 37.902344 49.070312 L 37.902344 44.792969 C 37.902344 44.53125 37.800781 44.28125 37.617188 44.097656 C 37.429688 43.914062 37.179688 43.808594 36.917969 43.808594 L 24.128906 43.808594 C 23.582031 43.808594 23.144531 44.25 23.144531 44.792969 L 23.144531 47.746094 L 21.175781 47.746094 L 21.175781 43.808594 L 19.207031 43.808594 L 19.207031 48.730469 C 19.207031 48.988281 19.3125 49.238281 19.496094 49.425781 C 19.679688 49.609375 19.929688 49.710938 20.191406 49.710938 L 30.03125 49.710938 L 30.03125 54.632812 L 17.238281 54.632812 C 16.457031 54.632812 15.703125 54.320312 15.152344 53.769531 C 14.597656 53.214844 14.285156 52.464844 14.285156 51.679688 L 14.285156 41.175781 C 14.285156 40.144531 14.609375 39.136719 15.214844 38.296875 C 15.816406 37.460938 16.671875 36.835938 17.652344 36.507812 L 21.832031 35.113281 L 24.175781 42.152344 L 24.179688 42.152344 C 24.28125 42.460938 24.53125 42.703125 24.847656 42.789062 C 25.164062 42.875 25.503906 42.800781 25.753906 42.585938 L 32 37.234375 L 38.246094 42.585938 C 38.425781 42.742188 38.652344 42.824219 38.886719 42.824219 C 38.976562 42.824219 39.0625 42.8125 39.148438 42.789062 C 39.464844 42.703125 39.714844 42.460938 39.820312 42.152344 L 42.164062 35.113281 L 46.347656 36.507812 C 47.328125 36.835938 48.179688 37.460938 48.78125 38.296875 C 49.386719 39.136719 49.710938 40.144531 49.710938 41.175781 Z M 49.710938 54.632812 "/>
<path style=" stroke:none;fill-rule:nonzero;fill:rgb(0%,0%,0%);fill-opacity:1;" d="M 29.933594 23.691406 L 28.171875 24.566406 L 28.273438 24.777344 C 28.617188 25.46875 29.148438 26.050781 29.808594 26.460938 C 30.46875 26.867188 31.226562 27.082031 32 27.078125 C 32.773438 27.082031 33.535156 26.867188 34.191406 26.460938 C 34.851562 26.054688 35.382812 25.46875 35.726562 24.777344 L 35.832031 24.570312 L 34.074219 23.683594 L 33.96875 23.894531 C 33.785156 24.261719 33.503906 24.570312 33.15625 24.785156 C 32.808594 25 32.410156 25.113281 32 25.113281 C 31.589844 25.113281 31.191406 25 30.84375 24.785156 C 30.496094 24.570312 30.214844 24.261719 30.03125 23.898438 Z M 29.933594 23.691406 "/>
</g>
</svg>
