<svg xmlns="http://www.w3.org/2000/svg" width="352" height="352" viewBox="0 0 352 352"><g transform="translate(176, 176) translate(-128, -128)"><svg width="256" height="256" viewBox="144 144 512 512"><path xmlns="http://www.w3.org/2000/svg" d="m606.56 614.12H198.48c-4.1758.0-7.5586-3.3867-7.5586-7.5586v-408.08c0-4.1719 3.3789-7.5586 7.5586-7.5586 4.1758.0 7.5586 3.3867 7.5586 7.5586v400.53h25.191v-241.83c0-11.129 9.0234-20.152 20.152-20.152h60.457c11.129.0 20.152 9.0234 20.152 20.152v241.83h25.191v-307.32c0-11.129 9.0234-20.152 20.152-20.152h60.457c11.129.0 20.152 9.0234 20.152 20.152v307.32h25.191v-141.07c0-11.129 9.0234-20.152 20.152-20.152h60.457c11.129.0 20.152 9.0234 20.152 20.152v141.07h22.664c4.1719.0 7.5586 3.3867 7.5586 7.5586.0 4.168-3.3867 7.5547-7.5586 7.5547z" fill-rule="evenodd" fill="#D4AF37"/></svg></g></svg>