<svg id="svg" fill="#D4AF37" stroke="#D4AF37" width="200" height="200" version="1.1" viewBox="144 144 512 512" xmlns="http://www.w3.org/2000/svg">
    <g id="IconSvg_bgCarrier" stroke-width="0"></g>
    <g id="IconSvg_tracerCarrier" stroke-linecap="round" stroke-linejoin="round" stroke="#CCCCCC" stroke-width="0">
      <g xmlns="http://www.w3.org/2000/svg">
  <path d="m257.85 319.23 65.602-17.559-1.375-5.0977 3.543-0.96094c9.0703-2.4414 25.191-3.375 30.887 17.816l42.074 157.07c4.625-1.25 9.418-1.8789 14.199-1.8789 0.64062 0 1.2812 0.15234 1.9219 0.16797l-42.746-159.51c-7.8945-29.375-32.137-34.031-50.488-29.129l-3.543 0.96094-1.375-5.0977-65.602 17.559c-7.082 1.9219-11.281 9.1914-9.3594 16.273 1.8945 7.0977 9.1797 11.297 16.262 9.3867z"></path>
  <path d="m578.57 479.34c-1.1289-4.2305-5.4492-6.7773-9.8164-5.6484l-105.48 28.258c1.0547 2.4414 2.0312 4.9453 2.7344 7.5742 0.70312 2.625 1.0078 5.2812 1.3281 7.9375l105.57-28.305c4.2617-1.1445 6.7969-5.5234 5.6641-9.8164z"></path>
  <path d="m401.04 359.83c1.6172 6.0469 5.4961 11.023 10.52 14.23-2.7344 5.25-3.6484 11.434-2.0312 17.57l21.863 81.449c2.8711 10.688 12.551 18.152 23.617 18.152 2.1523 0 4.2734-0.27344 6.3516-0.83984l83.496-22.367c6.3203-1.6953 11.586-5.7539 14.855-11.406 3.2812-5.6641 4.1367-12.273 2.4414-18.578l-21.832-81.48c-2.75-10.258-12.242-17.328-22.52-17.938 0.50391-3.2969 0.35156-6.6719-0.51953-9.9688l-21.832-81.465c-3.4336-12.762-17.191-20.719-29.984-17.328l-68.977 18.488c-13.023 3.4961-20.777 16.93-17.312 30zm123.82 0.88281 21.832 81.48c0.58203 2.1992 0.30469 4.457-0.83984 6.4258-1.1289 1.9375-2.9453 3.3594-5.1289 3.9375l-83.496 22.367c-4.4727 1.2383-9.1758-1.5742-10.352-5.9844l-21.848-81.449c-1.207-4.5195 1.4805-9.1758 5.9844-10.383l20.168-5.4062 11.406 42.395c1.5586 5.6641 5.2812 6.1992 8.3359 1.1914l10.488-17.145 17.617 9.6172c5.1445 2.8242 8.1367 0.47266 6.6094-5.207l-11.418-42.395 5.7695-1.5586h0.03125l14.488-3.8398c0.71875-0.21484 1.4648-0.30469 2.1992-0.30469 3.8008 0 7.1602 2.582 8.1523 6.2578zm-124.2-96.867 15.559-4.1523 11.039 40.871c1.5273 5.6797 5.0391 6.0781 7.832 0.92969l8.457-15.617 15.113 9.2969c4.9922 3.082 7.8477 0.96094 6.3359-4.7188l-11.039-40.887 15.68-4.1992c0.73438-0.18359 1.4805-0.30469 2.2148-0.30469 3.8008 0 7.1758 2.5938 8.1523 6.2891l21.832 81.465c0.58203 2.1836 0.28906 4.4727-0.85547 6.4141-1.1133 1.9688-2.9453 3.3594-5.1289 3.9375l-68.977 18.504c-4.4141 1.1758-9.1758-1.5742-10.367-6l-21.832-81.449c-1.207-4.5312 1.4805-9.1719 5.9844-10.379z"></path>
  <path d="m529.25 554.9h-92.84c12.289-9.3281 18.383-25.434 14.137-41.25-5.5742-20.855-27.039-33.25-47.891-27.664-20.887 5.5859-33.266 27.039-27.68 47.922 2.3359 8.7617 7.6172 15.922 14.367 20.992h-41.711c-4.4141 0-8 3.5742-8 8 0 4.4258 3.5859 8 8 8h181.62c4.4258 0 8-3.5742 8-8 0-4.4297-3.5742-8-8-8zm-119.65-42.961c6.5352-1.7539 13.238 2.1211 14.992 8.6719s-2.1211 13.266-8.6406 15.008c-6.5664 1.7422-13.266-2.1367-15.023-8.6562-1.7695-6.5664 2.1055-13.27 8.6719-15.023z"></path>
  <path d="m318.29 366.32c0-4.4258-3.5742-8.0156-8-8.0156h-81.113c-4.4414 0-8.0156 3.5859-8.0156 8.0156 0 4.4141 3.5742 8 8.0156 8h81.113c4.4297 0.015626 8-3.5898 8-8z"></path>
  <path d="m361.39 424.44c0-4.4141-3.5742-8.0156-7.9844-8.0156h-59.922c-4.4102 0-7.9844 3.6016-7.9844 8.0156 0 4.4141 3.5742 8 7.9844 8h59.906c4.4141 0 8-3.5898 8-8z"></path>
 </g>

      </g>
     <g id="IconSvg_iconCarrier">
      <g xmlns="http://www.w3.org/2000/svg">
  <path d="m257.85 319.23 65.602-17.559-1.375-5.0977 3.543-0.96094c9.0703-2.4414 25.191-3.375 30.887 17.816l42.074 157.07c4.625-1.25 9.418-1.8789 14.199-1.8789 0.64062 0 1.2812 0.15234 1.9219 0.16797l-42.746-159.51c-7.8945-29.375-32.137-34.031-50.488-29.129l-3.543 0.96094-1.375-5.0977-65.602 17.559c-7.082 1.9219-11.281 9.1914-9.3594 16.273 1.8945 7.0977 9.1797 11.297 16.262 9.3867z"></path>
  <path d="m578.57 479.34c-1.1289-4.2305-5.4492-6.7773-9.8164-5.6484l-105.48 28.258c1.0547 2.4414 2.0312 4.9453 2.7344 7.5742 0.70312 2.625 1.0078 5.2812 1.3281 7.9375l105.57-28.305c4.2617-1.1445 6.7969-5.5234 5.6641-9.8164z"></path>
  <path d="m401.04 359.83c1.6172 6.0469 5.4961 11.023 10.52 14.23-2.7344 5.25-3.6484 11.434-2.0312 17.57l21.863 81.449c2.8711 10.688 12.551 18.152 23.617 18.152 2.1523 0 4.2734-0.27344 6.3516-0.83984l83.496-22.367c6.3203-1.6953 11.586-5.7539 14.855-11.406 3.2812-5.6641 4.1367-12.273 2.4414-18.578l-21.832-81.48c-2.75-10.258-12.242-17.328-22.52-17.938 0.50391-3.2969 0.35156-6.6719-0.51953-9.9688l-21.832-81.465c-3.4336-12.762-17.191-20.719-29.984-17.328l-68.977 18.488c-13.023 3.4961-20.777 16.93-17.312 30zm123.82 0.88281 21.832 81.48c0.58203 2.1992 0.30469 4.457-0.83984 6.4258-1.1289 1.9375-2.9453 3.3594-5.1289 3.9375l-83.496 22.367c-4.4727 1.2383-9.1758-1.5742-10.352-5.9844l-21.848-81.449c-1.207-4.5195 1.4805-9.1758 5.9844-10.383l20.168-5.4062 11.406 42.395c1.5586 5.6641 5.2812 6.1992 8.3359 1.1914l10.488-17.145 17.617 9.6172c5.1445 2.8242 8.1367 0.47266 6.6094-5.207l-11.418-42.395 5.7695-1.5586h0.03125l14.488-3.8398c0.71875-0.21484 1.4648-0.30469 2.1992-0.30469 3.8008 0 7.1602 2.582 8.1523 6.2578zm-124.2-96.867 15.559-4.1523 11.039 40.871c1.5273 5.6797 5.0391 6.0781 7.832 0.92969l8.457-15.617 15.113 9.2969c4.9922 3.082 7.8477 0.96094 6.3359-4.7188l-11.039-40.887 15.68-4.1992c0.73438-0.18359 1.4805-0.30469 2.2148-0.30469 3.8008 0 7.1758 2.5938 8.1523 6.2891l21.832 81.465c0.58203 2.1836 0.28906 4.4727-0.85547 6.4141-1.1133 1.9688-2.9453 3.3594-5.1289 3.9375l-68.977 18.504c-4.4141 1.1758-9.1758-1.5742-10.367-6l-21.832-81.449c-1.207-4.5312 1.4805-9.1719 5.9844-10.379z"></path>
  <path d="m529.25 554.9h-92.84c12.289-9.3281 18.383-25.434 14.137-41.25-5.5742-20.855-27.039-33.25-47.891-27.664-20.887 5.5859-33.266 27.039-27.68 47.922 2.3359 8.7617 7.6172 15.922 14.367 20.992h-41.711c-4.4141 0-8 3.5742-8 8 0 4.4258 3.5859 8 8 8h181.62c4.4258 0 8-3.5742 8-8 0-4.4297-3.5742-8-8-8zm-119.65-42.961c6.5352-1.7539 13.238 2.1211 14.992 8.6719s-2.1211 13.266-8.6406 15.008c-6.5664 1.7422-13.266-2.1367-15.023-8.6562-1.7695-6.5664 2.1055-13.27 8.6719-15.023z"></path>
  <path d="m318.29 366.32c0-4.4258-3.5742-8.0156-8-8.0156h-81.113c-4.4414 0-8.0156 3.5859-8.0156 8.0156 0 4.4141 3.5742 8 8.0156 8h81.113c4.4297 0.015626 8-3.5898 8-8z"></path>
  <path d="m361.39 424.44c0-4.4141-3.5742-8.0156-7.9844-8.0156h-59.922c-4.4102 0-7.9844 3.6016-7.9844 8.0156 0 4.4141 3.5742 8 7.9844 8h59.906c4.4141 0 8-3.5898 8-8z"></path>
 </g>

      </g>
      </svg>