<?xml version="1.0" encoding="UTF-8"?>
<svg xmlns="http://www.w3.org/2000/svg" xmlns:xlink="http://www.w3.org/1999/xlink" width="64px" height="64px" viewBox="0 0 64 64" version="1.1">
<g id="surface1">
<path style=" stroke:none;fill-rule:nonzero;fill:rgb(0%,0%,0%);fill-opacity:1;" d="M 40.300781 46.722656 C 37.847656 48.109375 35.015625 48.910156 32 48.910156 C 28.984375 48.910156 26.152344 48.109375 23.699219 46.722656 L 23.699219 51.789062 C 23.699219 52.976562 24.664062 53.945312 25.855469 53.945312 L 38.144531 53.945312 C 39.332031 53.945312 40.300781 52.976562 40.300781 51.789062 Z M 40.300781 46.722656 "/>
<path style=" stroke:none;fill-rule:nonzero;fill:rgb(0%,0%,0%);fill-opacity:1;" d="M 26.09375 54.890625 L 37.902344 54.890625 L 37.902344 62.226562 L 26.09375 62.226562 Z M 26.09375 54.890625 "/>
<path style=" stroke:none;fill-rule:nonzero;fill:rgb(0%,0%,0%);fill-opacity:1;" d="M 26.09375 1.769531 L 37.902344 1.769531 L 37.902344 9.109375 L 26.09375 9.109375 Z M 26.09375 1.769531 "/>
<path style=" stroke:none;fill-rule:nonzero;fill:rgb(0%,0%,0%);fill-opacity:1;" d="M 23.699219 17.277344 C 26.152344 15.890625 28.984375 15.089844 32 15.089844 C 35.015625 15.089844 37.847656 15.890625 40.300781 17.277344 L 40.300781 12.210938 C 40.300781 11.023438 39.335938 10.054688 38.144531 10.054688 L 25.855469 10.054688 C 24.664062 10.054688 23.699219 11.023438 23.699219 12.210938 Z M 23.699219 17.277344 "/>
<path style=" stroke:none;fill-rule:nonzero;fill:rgb(0%,0%,0%);fill-opacity:1;" d="M 47.089844 32.472656 C 46.832031 32.472656 46.617188 32.261719 46.617188 32 C 46.617188 31.738281 46.832031 31.527344 47.089844 31.527344 L 47.953125 31.527344 C 47.832031 27.484375 46.203125 23.8125 43.609375 21.058594 L 43.003906 21.664062 C 42.914062 21.753906 42.792969 21.800781 42.671875 21.800781 C 42.550781 21.800781 42.429688 21.757812 42.335938 21.664062 C 42.152344 21.480469 42.152344 21.179688 42.335938 20.996094 L 42.941406 20.390625 C 40.1875 17.796875 36.519531 16.167969 32.472656 16.046875 L 32.472656 16.910156 C 32.472656 17.171875 32.261719 17.382812 32 17.382812 C 31.738281 17.382812 31.527344 17.171875 31.527344 16.910156 L 31.527344 16.046875 C 27.484375 16.167969 23.8125 17.796875 21.058594 20.390625 L 21.664062 20.996094 C 21.847656 21.179688 21.847656 21.480469 21.664062 21.664062 C 21.570312 21.753906 21.449219 21.800781 21.328125 21.800781 C 21.207031 21.800781 21.089844 21.753906 20.996094 21.664062 L 20.390625 21.058594 C 17.796875 23.8125 16.167969 27.480469 16.050781 31.527344 L 16.910156 31.527344 C 17.171875 31.527344 17.382812 31.738281 17.382812 32 C 17.382812 32.261719 17.171875 32.472656 16.910156 32.472656 L 16.046875 32.472656 C 16.167969 36.515625 17.796875 40.1875 20.390625 42.941406 L 20.996094 42.335938 C 21.179688 42.152344 21.480469 42.152344 21.664062 42.335938 C 21.847656 42.523438 21.847656 42.820312 21.664062 43.003906 L 21.058594 43.609375 C 23.8125 46.203125 27.480469 47.835938 31.527344 47.953125 L 31.527344 47.089844 C 31.527344 46.832031 31.738281 46.617188 32 46.617188 C 32.261719 46.617188 32.472656 46.832031 32.472656 47.089844 L 32.472656 47.953125 C 36.515625 47.832031 40.1875 46.203125 42.941406 43.609375 L 42.335938 43.003906 C 42.152344 42.820312 42.152344 42.519531 42.335938 42.335938 C 42.519531 42.152344 42.820312 42.152344 43.003906 42.335938 L 43.609375 42.941406 C 46.203125 40.1875 47.832031 36.519531 47.953125 32.472656 Z M 38.304688 36.121094 C 38.214844 36.257812 38.0625 36.335938 37.910156 36.335938 C 37.820312 36.335938 37.730469 36.308594 37.652344 36.257812 L 32.003906 32.566406 L 23.523438 38.265625 C 23.445312 38.320312 23.351562 38.347656 23.261719 38.347656 C 23.109375 38.347656 22.960938 38.273438 22.867188 38.136719 C 22.722656 37.921875 22.78125 37.628906 22.996094 37.484375 L 31.527344 31.75 L 31.527344 18.839844 C 31.527344 18.578125 31.738281 18.367188 32 18.367188 C 32.261719 18.367188 32.472656 18.578125 32.472656 18.839844 L 32.472656 31.746094 L 38.167969 35.46875 C 38.386719 35.609375 38.449219 35.902344 38.304688 36.121094 Z M 38.304688 36.121094 "/>
</g>
</svg>
