<svg id="svg" fill="#D4AF37" stroke="#D4AF37" width="200" height="200" version="1.1" viewBox="144 144 512 512" xmlns="http://www.w3.org/2000/svg">
    <g id="IconSvg_bgCarrier" stroke-width="0"></g>
    <g id="IconSvg_tracerCarrier" stroke-linecap="round" stroke-linejoin="round" stroke="#CCCCCC" stroke-width="0">
      <defs xmlns="http://www.w3.org/2000/svg">
  <clipPath id="b">
   <path d="m319 208h332.9v384h-332.9z"></path>
  </clipPath>
  <clipPath id="a">
   <path d="m148.09 355h157.91v33h-157.91z"></path>
  </clipPath>
 </defs>
<g xmlns="http://www.w3.org/2000/svg" clip-path="url(#b)">
  <path d="m623.33 322.43c3.6211 3.6211 9.4102 3.6211 12.93 0l12.93-12.93c3.6211-3.6211 3.6211-9.4102 0-12.93l-29.27-29.27c-3.6211-3.6211-9.4102-3.6211-12.93 0l-12.93 12.93c-3.6211 3.6211-3.6211 9.4102 0 12.93l1.2422 1.2422-9.1016 9.1016c-22.961-18.203-50.781-30.305-81.293-33.82v-16.547h10.031c5.0664 0 9.1016-4.1367 9.1016-9.1016v-26.891c0-5.0664-4.1367-9.1016-9.1016-9.1016h-58.125c-5.0664 0-9.1016 4.1367-9.1016 9.1016v26.891c0 5.0664 4.1367 9.1016 9.1016 9.1016h10.031v16.547c-30.512 3.6211-58.434 15.719-81.293 33.82l-9.1016-9.1016 1.2422-1.2422c3.6211-3.6211 3.6211-9.4102 0-12.93l-12.93-12.93c-3.6211-3.6211-9.4102-3.6211-12.93 0l-29.27 29.27c-3.6211 3.6211-3.6211 9.4102 0 12.93l12.93 12.93c3.6211 3.6211 9.4102 3.6211 12.93 0l1.2422-1.2422 9.1016 9.1016c-21.719 27.512-34.648 62.262-34.648 99.91 0 89.152 72.605 161.76 161.76 161.76s161.76-72.605 161.76-161.76c0-37.648-13.031-72.398-34.648-99.91l9.1016-9.1016zm-137.45 232.09c-68.469 0-124.21-55.746-124.21-124.21s55.746-124.21 124.21-124.21 124.21 55.746 124.21 124.21-55.746 124.21-124.21 124.21z"></path>
 </g>
<path xmlns="http://www.w3.org/2000/svg" d="m213.77 473.64c-8.8945 0-16.031 7.2383-16.031 16.031 0 8.8945 7.2383 16.031 16.031 16.031h86.98c1.7578 0 3.3086-0.30859 4.8594-0.82812-4.1367-10.031-7.5508-20.477-9.9297-31.336h-81.91z"></path>
<g xmlns="http://www.w3.org/2000/svg" clip-path="url(#a)">
  <path d="m305.51 355.94c-1.4492-0.41406-3.1016-0.82812-4.7578-0.82812l-136.62 0.003906c-8.8945 0-16.031 7.2383-16.031 16.031 0 8.8945 7.2383 16.031 16.031 16.031h131.45c2.3789-10.551 5.6875-21.102 9.9297-31.238z"></path>
 </g>
<path xmlns="http://www.w3.org/2000/svg" d="m290.82 430.3c0-5.3789 0.30859-10.652 0.72266-15.926h-105.08c-8.8945 0-16.031 7.2383-16.031 16.031s7.2383 16.031 16.031 16.031h104.98c-0.3125-5.2773-0.62109-10.652-0.62109-16.137z"></path>
<path xmlns="http://www.w3.org/2000/svg" d="m563.96 384.07c-2.6875-4.4492-8.2734-6.207-12.93-3.8281l-55.953 27.406c-6.9297-2.793-14.996-2.4805-21.926 1.5508-11.688 6.9297-15.617 22.031-8.6875 33.715 6.9297 11.688 22.031 15.617 33.715 8.6875 6.9297-4.1367 11.066-11.066 11.895-18.41l50.988-35.887c4.3477-2.9961 5.5898-8.6836 2.8984-13.234zm-67.742 48.922c-1.5508 5.793-7.4453 9.2031-13.137 7.7578-5.793-1.5508-9.2031-7.4453-7.7578-13.137 1.5508-5.793 7.4453-9.2031 13.137-7.7578 5.793 1.4492 9.207 7.4453 7.7578 13.137z"></path>
<path xmlns="http://www.w3.org/2000/svg" d="m520.84 368.66c4.8594 2.793 11.066 1.0352 13.754-3.8281 2.793-4.8594 1.0352-11.066-3.8281-13.754-4.8594-2.793-10.965-1.0352-13.754 3.8281-1.8633 3.3086-1.6562 7.1367 0.10156 10.137 0.9375 1.3438 2.1758 2.6875 3.7266 3.6172z"></path>
<path xmlns="http://www.w3.org/2000/svg" d="m485.26 359.35c5.5859 0 10.031-4.5508 10.031-10.137 0-5.5859-4.5508-10.031-10.137-10.031-5.5859 0-10.031 4.5508-10.031 10.137 0 1.8633 0.51562 3.6211 1.3438 5.0664 1.7617 3 5.0703 5.0703 8.793 4.9648z"></path>
<path xmlns="http://www.w3.org/2000/svg" d="m486.61 501.46c-5.5859 0.10156-10.031 4.6523-10.031 10.238 0 1.8633 0.51562 3.5156 1.3438 4.9648 1.7578 3 5.0664 5.0664 8.793 4.9648 5.5859-0.10156 10.031-4.6523 9.9297-10.238 0.097656-5.3828-4.4531-9.9297-10.035-9.9297z"></path>
<path xmlns="http://www.w3.org/2000/svg" d="m521.98 491.63c-4.7578 2.793-6.4141 8.9961-3.5156 13.754 2.793 4.8594 8.9961 6.4141 13.859 3.5156 4.7578-2.793 6.4141-8.9961 3.5156-13.754-2.8984-4.7578-9.1016-6.3086-13.859-3.5156z"></path>
<path xmlns="http://www.w3.org/2000/svg" d="m561.48 461.64c-4.8594-2.6875-11.066-1.0352-13.754 3.8281-1.8633 3.3086-1.6562 7.0312 0.10156 10.137 0.82812 1.4492 2.1719 2.793 3.7227 3.6211 4.8594 2.793 11.066 1.0352 13.754-3.8281 2.6914-4.8633 1.0352-11.07-3.8242-13.758z"></path>
<path xmlns="http://www.w3.org/2000/svg" d="m414.72 431.23c0-5.5859-4.6523-10.031-10.137-10.031-5.5859 0.10156-10.031 4.6523-10.031 10.238 0 1.8633 0.51562 3.5156 1.3438 4.9648 1.7578 3 5.0664 5.0664 8.793 4.9648 5.6875-0.003906 10.137-4.5508 10.031-10.137z"></path>
<path xmlns="http://www.w3.org/2000/svg" d="m410.9 463.09c-4.7578 2.793-6.4141 8.9961-3.5156 13.754 2.793 4.7578 8.9961 6.4141 13.859 3.5156 4.7578-2.793 6.3086-8.9961 3.5156-13.859-2.8984-4.6484-9.1016-6.3047-13.859-3.4102z"></path>
<path xmlns="http://www.w3.org/2000/svg" d="m556.93 429.79c0 1.8633 0.51562 3.5156 1.4492 5.0664 1.7578 3 5.0664 4.9648 8.793 4.9648 5.5859 0 10.031-4.6523 10.031-10.137 0-5.5859-4.5508-10.031-10.137-10.031-5.6914 0-10.242 4.6562-10.137 10.137z"></path>
<path xmlns="http://www.w3.org/2000/svg" d="m410.17 399.48c4.8594 2.793 11.066 1.0352 13.754-3.8281 2.6875-4.8594 1.0352-10.965-3.9297-13.754-4.8594-2.6875-10.965-1.0352-13.754 3.8281-1.7578 3.207-1.6562 7.0312 0.10156 10.137 0.93359 1.4453 2.1758 2.6875 3.8281 3.6172z"></path>
<path xmlns="http://www.w3.org/2000/svg" d="m449.58 369.38s0.10156 0 0.10156-0.10156c0.10156 0 0.10156 0 0.10156-0.10156h0.10156c4.7578-2.793 6.3086-8.9961 3.5156-13.754-2.793-4.8594-8.9961-6.4141-13.859-3.6211 0 0-0.10156 0-0.10156 0.10156-0.10156 0-0.10156 0.10156-0.20703 0.10156-4.7578 2.793-6.4141 8.9961-3.5156 13.754 2.8984 4.8633 9.1055 6.4141 13.863 3.6211z"></path>
<path xmlns="http://www.w3.org/2000/svg" d="m450.92 492.36c-4.8594-2.793-11.066-1.0352-13.754 3.8281-1.8633 3.3086-1.6562 7.1367 0.10156 10.137 0.82812 1.4492 2.1719 2.793 3.7227 3.7227 4.8594 2.6875 11.066 0.92969 13.754-3.8281 2.7969-4.9648 1.0391-11.066-3.8242-13.859z"></path>

      </g>
     <g id="IconSvg_iconCarrier">
      <defs xmlns="http://www.w3.org/2000/svg">
  <clipPath id="b">
   <path d="m319 208h332.9v384h-332.9z"></path>
  </clipPath>
  <clipPath id="a">
   <path d="m148.09 355h157.91v33h-157.91z"></path>
  </clipPath>
 </defs>
<g xmlns="http://www.w3.org/2000/svg" clip-path="url(#b)">
  <path d="m623.33 322.43c3.6211 3.6211 9.4102 3.6211 12.93 0l12.93-12.93c3.6211-3.6211 3.6211-9.4102 0-12.93l-29.27-29.27c-3.6211-3.6211-9.4102-3.6211-12.93 0l-12.93 12.93c-3.6211 3.6211-3.6211 9.4102 0 12.93l1.2422 1.2422-9.1016 9.1016c-22.961-18.203-50.781-30.305-81.293-33.82v-16.547h10.031c5.0664 0 9.1016-4.1367 9.1016-9.1016v-26.891c0-5.0664-4.1367-9.1016-9.1016-9.1016h-58.125c-5.0664 0-9.1016 4.1367-9.1016 9.1016v26.891c0 5.0664 4.1367 9.1016 9.1016 9.1016h10.031v16.547c-30.512 3.6211-58.434 15.719-81.293 33.82l-9.1016-9.1016 1.2422-1.2422c3.6211-3.6211 3.6211-9.4102 0-12.93l-12.93-12.93c-3.6211-3.6211-9.4102-3.6211-12.93 0l-29.27 29.27c-3.6211 3.6211-3.6211 9.4102 0 12.93l12.93 12.93c3.6211 3.6211 9.4102 3.6211 12.93 0l1.2422-1.2422 9.1016 9.1016c-21.719 27.512-34.648 62.262-34.648 99.91 0 89.152 72.605 161.76 161.76 161.76s161.76-72.605 161.76-161.76c0-37.648-13.031-72.398-34.648-99.91l9.1016-9.1016zm-137.45 232.09c-68.469 0-124.21-55.746-124.21-124.21s55.746-124.21 124.21-124.21 124.21 55.746 124.21 124.21-55.746 124.21-124.21 124.21z"></path>
 </g>
<path xmlns="http://www.w3.org/2000/svg" d="m213.77 473.64c-8.8945 0-16.031 7.2383-16.031 16.031 0 8.8945 7.2383 16.031 16.031 16.031h86.98c1.7578 0 3.3086-0.30859 4.8594-0.82812-4.1367-10.031-7.5508-20.477-9.9297-31.336h-81.91z"></path>
<g xmlns="http://www.w3.org/2000/svg" clip-path="url(#a)">
  <path d="m305.51 355.94c-1.4492-0.41406-3.1016-0.82812-4.7578-0.82812l-136.62 0.003906c-8.8945 0-16.031 7.2383-16.031 16.031 0 8.8945 7.2383 16.031 16.031 16.031h131.45c2.3789-10.551 5.6875-21.102 9.9297-31.238z"></path>
 </g>
<path xmlns="http://www.w3.org/2000/svg" d="m290.82 430.3c0-5.3789 0.30859-10.652 0.72266-15.926h-105.08c-8.8945 0-16.031 7.2383-16.031 16.031s7.2383 16.031 16.031 16.031h104.98c-0.3125-5.2773-0.62109-10.652-0.62109-16.137z"></path>
<path xmlns="http://www.w3.org/2000/svg" d="m563.96 384.07c-2.6875-4.4492-8.2734-6.207-12.93-3.8281l-55.953 27.406c-6.9297-2.793-14.996-2.4805-21.926 1.5508-11.688 6.9297-15.617 22.031-8.6875 33.715 6.9297 11.688 22.031 15.617 33.715 8.6875 6.9297-4.1367 11.066-11.066 11.895-18.41l50.988-35.887c4.3477-2.9961 5.5898-8.6836 2.8984-13.234zm-67.742 48.922c-1.5508 5.793-7.4453 9.2031-13.137 7.7578-5.793-1.5508-9.2031-7.4453-7.7578-13.137 1.5508-5.793 7.4453-9.2031 13.137-7.7578 5.793 1.4492 9.207 7.4453 7.7578 13.137z"></path>
<path xmlns="http://www.w3.org/2000/svg" d="m520.84 368.66c4.8594 2.793 11.066 1.0352 13.754-3.8281 2.793-4.8594 1.0352-11.066-3.8281-13.754-4.8594-2.793-10.965-1.0352-13.754 3.8281-1.8633 3.3086-1.6562 7.1367 0.10156 10.137 0.9375 1.3438 2.1758 2.6875 3.7266 3.6172z"></path>
<path xmlns="http://www.w3.org/2000/svg" d="m485.26 359.35c5.5859 0 10.031-4.5508 10.031-10.137 0-5.5859-4.5508-10.031-10.137-10.031-5.5859 0-10.031 4.5508-10.031 10.137 0 1.8633 0.51562 3.6211 1.3438 5.0664 1.7617 3 5.0703 5.0703 8.793 4.9648z"></path>
<path xmlns="http://www.w3.org/2000/svg" d="m486.61 501.46c-5.5859 0.10156-10.031 4.6523-10.031 10.238 0 1.8633 0.51562 3.5156 1.3438 4.9648 1.7578 3 5.0664 5.0664 8.793 4.9648 5.5859-0.10156 10.031-4.6523 9.9297-10.238 0.097656-5.3828-4.4531-9.9297-10.035-9.9297z"></path>
<path xmlns="http://www.w3.org/2000/svg" d="m521.98 491.63c-4.7578 2.793-6.4141 8.9961-3.5156 13.754 2.793 4.8594 8.9961 6.4141 13.859 3.5156 4.7578-2.793 6.4141-8.9961 3.5156-13.754-2.8984-4.7578-9.1016-6.3086-13.859-3.5156z"></path>
<path xmlns="http://www.w3.org/2000/svg" d="m561.48 461.64c-4.8594-2.6875-11.066-1.0352-13.754 3.8281-1.8633 3.3086-1.6562 7.0312 0.10156 10.137 0.82812 1.4492 2.1719 2.793 3.7227 3.6211 4.8594 2.793 11.066 1.0352 13.754-3.8281 2.6914-4.8633 1.0352-11.07-3.8242-13.758z"></path>
<path xmlns="http://www.w3.org/2000/svg" d="m414.72 431.23c0-5.5859-4.6523-10.031-10.137-10.031-5.5859 0.10156-10.031 4.6523-10.031 10.238 0 1.8633 0.51562 3.5156 1.3438 4.9648 1.7578 3 5.0664 5.0664 8.793 4.9648 5.6875-0.003906 10.137-4.5508 10.031-10.137z"></path>
<path xmlns="http://www.w3.org/2000/svg" d="m410.9 463.09c-4.7578 2.793-6.4141 8.9961-3.5156 13.754 2.793 4.7578 8.9961 6.4141 13.859 3.5156 4.7578-2.793 6.3086-8.9961 3.5156-13.859-2.8984-4.6484-9.1016-6.3047-13.859-3.4102z"></path>
<path xmlns="http://www.w3.org/2000/svg" d="m556.93 429.79c0 1.8633 0.51562 3.5156 1.4492 5.0664 1.7578 3 5.0664 4.9648 8.793 4.9648 5.5859 0 10.031-4.6523 10.031-10.137 0-5.5859-4.5508-10.031-10.137-10.031-5.6914 0-10.242 4.6562-10.137 10.137z"></path>
<path xmlns="http://www.w3.org/2000/svg" d="m410.17 399.48c4.8594 2.793 11.066 1.0352 13.754-3.8281 2.6875-4.8594 1.0352-10.965-3.9297-13.754-4.8594-2.6875-10.965-1.0352-13.754 3.8281-1.7578 3.207-1.6562 7.0312 0.10156 10.137 0.93359 1.4453 2.1758 2.6875 3.8281 3.6172z"></path>
<path xmlns="http://www.w3.org/2000/svg" d="m449.58 369.38s0.10156 0 0.10156-0.10156c0.10156 0 0.10156 0 0.10156-0.10156h0.10156c4.7578-2.793 6.3086-8.9961 3.5156-13.754-2.793-4.8594-8.9961-6.4141-13.859-3.6211 0 0-0.10156 0-0.10156 0.10156-0.10156 0-0.10156 0.10156-0.20703 0.10156-4.7578 2.793-6.4141 8.9961-3.5156 13.754 2.8984 4.8633 9.1055 6.4141 13.863 3.6211z"></path>
<path xmlns="http://www.w3.org/2000/svg" d="m450.92 492.36c-4.8594-2.793-11.066-1.0352-13.754 3.8281-1.8633 3.3086-1.6562 7.1367 0.10156 10.137 0.82812 1.4492 2.1719 2.793 3.7227 3.7227 4.8594 2.6875 11.066 0.92969 13.754-3.8281 2.7969-4.9648 1.0391-11.066-3.8242-13.859z"></path>

      </g>
      </svg>